<?xml version="1.0" encoding="UTF-8" standalone="no"?>
<!DOCTYPE svg PUBLIC "-//W3C//DTD SVG 1.1//EN"
 "http://www.w3.org/Graphics/SVG/1.1/DTD/svg11.dtd">
<!-- Generated by graphviz version 3.0.0 (20220226.1711)
 -->
<!-- Title: tree Pages: 1 -->
<svg width="6141pt" height="597pt"
 viewBox="0.00 0.00 6141.39 597.35" xmlns="http://www.w3.org/2000/svg" xmlns:xlink="http://www.w3.org/1999/xlink">
<g id="graph0" class="graph" transform="scale(1 1) rotate(0) translate(4 593.35)">
<title>tree</title>
<polygon fill="white" stroke="transparent" points="-4,4 -4,-593.35 6137.39,-593.35 6137.39,4 -4,4"/>
<!-- 000200000020000021000201200010210001012001,50 -->
<g id="node1" class="node">
<title>000200000020000021000201200010210001012001,50</title>
<ellipse fill="none" stroke="black" cx="2993.19" cy="-506.16" rx="83.39" ry="83.39"/>
<text text-anchor="middle" x="2993.19" y="-502.46" font-family="Times New Roman,serif" font-size="14.00">4.109927983539096</text>
</g>
<!-- 000200000020002021000201200010210001012001,49 -->
<g id="node2" class="node">
<title>000200000020002021000201200010210001012001,49</title>
<ellipse fill="none" stroke="black" cx="658.19" cy="-299.23" rx="83.39" ry="83.39"/>
<text text-anchor="middle" x="658.19" y="-295.53" font-family="Times New Roman,serif" font-size="14.00">1.688052983539096</text>
</g>
<!-- 000200000020000021000201200010210001012001,50&#45;&gt;000200000020002021000201200010210001012001,49 -->
<g id="edge1" class="edge">
<title>000200000020000021000201200010210001012001,50&#45;&gt;000200000020002021000201200010210001012001,49</title>
<path fill="none" stroke="black" d="M2910.09,-497.87C2550.52,-466.31 1129.88,-341.62 751.3,-308.4"/>
<polygon fill="black" stroke="black" points="751.48,-304.9 741.21,-307.51 750.87,-311.87 751.48,-304.9"/>
</g>
<!-- 000200000020000021000201200010210001212001,49 -->
<g id="node3" class="node">
<title>000200000020000021000201200010210001212001,49</title>
<ellipse fill="none" stroke="black" cx="1786.19" cy="-299.23" rx="87.99" ry="87.99"/>
<text text-anchor="middle" x="1786.19" y="-295.53" font-family="Times New Roman,serif" font-size="14.00">2.7765946502057623</text>
</g>
<!-- 000200000020000021000201200010210001012001,50&#45;&gt;000200000020000021000201200010210001212001,49 -->
<g id="edge2" class="edge">
<title>000200000020000021000201200010210001012001,50&#45;&gt;000200000020000021000201200010210001212001,49</title>
<path fill="none" stroke="black" d="M2911.18,-491.24C2695.65,-454.64 2113.99,-355.88 1882.82,-316.63"/>
<polygon fill="black" stroke="black" points="1883.19,-313.15 1872.75,-314.92 1882.02,-320.05 1883.19,-313.15"/>
</g>
<!-- 000200000020000021000201200010210001012021,49 -->
<g id="node4" class="node">
<title>000200000020000021000201200010210001012021,49</title>
<ellipse fill="none" stroke="black" cx="2616.19" cy="-299.23" rx="87.99" ry="87.99"/>
<text text-anchor="middle" x="2616.19" y="-295.53" font-family="Times New Roman,serif" font-size="14.00">2.7765946502057623</text>
</g>
<!-- 000200000020000021000201200010210001012001,50&#45;&gt;000200000020000021000201200010210001012021,49 -->
<g id="edge5" class="edge">
<title>000200000020000021000201200010210001012001,50&#45;&gt;000200000020000021000201200010210001012021,49</title>
<path fill="none" stroke="black" d="M2920.5,-465.65C2858.07,-431.71 2767.97,-382.73 2702.01,-346.88"/>
<polygon fill="black" stroke="black" points="2703.32,-343.61 2692.87,-341.91 2699.98,-349.76 2703.32,-343.61"/>
</g>
<!-- 000200000220000021000201200010210001012001,49 -->
<g id="node5" class="node">
<title>000200000220000021000201200010210001012001,49</title>
<ellipse fill="none" stroke="black" cx="3279.19" cy="-299.23" rx="87.99" ry="87.99"/>
<text text-anchor="middle" x="3279.19" y="-295.53" font-family="Times New Roman,serif" font-size="14.00">3.6799833333333343</text>
</g>
<!-- 000200000020000021000201200010210001012001,50&#45;&gt;000200000220000021000201200010210001012001,49 -->
<g id="edge3" class="edge">
<title>000200000020000021000201200010210001012001,50&#45;&gt;000200000220000021000201200010210001012001,49</title>
<path fill="none" stroke="black" d="M3060.61,-456.85C3102.34,-426.95 3156.13,-388.41 3199.91,-357.04"/>
<polygon fill="black" stroke="black" points="3202.15,-359.74 3208.24,-351.07 3198.07,-354.05 3202.15,-359.74"/>
</g>
<!-- 000200000020000021000201200010210001012201,49 -->
<g id="node6" class="node">
<title>000200000020000021000201200010210001012201,49</title>
<ellipse fill="none" stroke="black" cx="4394.19" cy="-299.23" rx="87.99" ry="87.99"/>
<text text-anchor="middle" x="4394.19" y="-295.53" font-family="Times New Roman,serif" font-size="14.00">3.7920781893004114</text>
</g>
<!-- 000200000020000021000201200010210001012001,50&#45;&gt;000200000020000021000201200010210001012201,49 -->
<g id="edge4" class="edge">
<title>000200000020000021000201200010210001012001,50&#45;&gt;000200000020000021000201200010210001012201,49</title>
<path fill="none" stroke="black" d="M3075.6,-493.11C3319.28,-457.46 4035.68,-352.67 4297.2,-314.41"/>
<polygon fill="black" stroke="black" points="4298.05,-317.83 4307.44,-312.92 4297.04,-310.9 4298.05,-317.83"/>
</g>
<!-- 000200000020000021000201200010210021012001,49 -->
<g id="node7" class="node">
<title>000200000020000021000201200010210021012001,49</title>
<ellipse fill="none" stroke="black" cx="5498.19" cy="-299.23" rx="83.39" ry="83.39"/>
<text text-anchor="middle" x="5498.19" y="-295.53" font-family="Times New Roman,serif" font-size="14.00">4.109927983539096</text>
</g>
<!-- 000200000020000021000201200010210001012001,50&#45;&gt;000200000020000021000201200010210021012001,49 -->
<g id="edge6" class="edge">
<title>000200000020000021000201200010210001012001,50&#45;&gt;000200000020000021000201200010210021012001,49</title>
<path fill="none" stroke="black" d="M3076.44,-498.8C3303.39,-481.43 3952.03,-431.46 4491.19,-386.97 4827.86,-359.19 5227.64,-324.14 5405.23,-308.46"/>
<polygon fill="black" stroke="black" points="5405.66,-311.93 5415.32,-307.57 5405.05,-304.96 5405.66,-311.93"/>
</g>
<!-- 000200000120002021000201200010210001012001,50 -->
<g id="node8" class="node">
<title>000200000120002021000201200010210001012001,50</title>
<ellipse fill="none" stroke="black" cx="83.19" cy="-87.74" rx="83.39" ry="83.39"/>
<text text-anchor="middle" x="83.19" y="-84.04" font-family="Times New Roman,serif" font-size="14.00">1.688052983539096</text>
</g>
<!-- 000200000020002021000201200010210001012001,49&#45;&gt;000200000120002021000201200010210001012001,50 -->
<g id="edge9" class="edge">
<title>000200000020002021000201200010210001012001,49&#45;&gt;000200000120002021000201200010210001012001,50</title>
<path fill="none" stroke="black" d="M575.37,-290.01C475.3,-277.29 304.29,-246.42 175.19,-175.48 165.37,-170.09 155.81,-163.4 146.79,-156.14"/>
<polygon fill="black" stroke="black" points="148.93,-153.36 139.02,-149.63 144.44,-158.73 148.93,-153.36"/>
</g>
<!-- 000200000020002021000201200010210011012001,50 -->
<g id="node9" class="node">
<title>000200000020002021000201200010210011012001,50</title>
<ellipse fill="none" stroke="black" cx="272.19" cy="-87.74" rx="87.99" ry="87.99"/>
<text text-anchor="middle" x="272.19" y="-84.04" font-family="Times New Roman,serif" font-size="14.00">3.0476337448559665</text>
</g>
<!-- 000200000020002021000201200010210001012001,49&#45;&gt;000200000020002021000201200010210011012001,50 -->
<g id="edge12" class="edge">
<title>000200000020002021000201200010210001012001,49&#45;&gt;000200000020002021000201200010210011012001,50</title>
<path fill="none" stroke="black" d="M578.98,-272.83C518.61,-251.59 434.81,-217.95 368.19,-175.48 359.27,-169.8 350.39,-163.27 341.83,-156.4"/>
<polygon fill="black" stroke="black" points="344.01,-153.66 334.06,-150.01 339.56,-159.07 344.01,-153.66"/>
</g>
<!-- 000200000020002021000201200010210001112001,50 -->
<g id="node10" class="node">
<title>000200000020002021000201200010210001112001,50</title>
<ellipse fill="none" stroke="black" cx="465.19" cy="-87.74" rx="87.99" ry="87.99"/>
<text text-anchor="middle" x="465.19" y="-84.04" font-family="Times New Roman,serif" font-size="14.00">3.5143004115226333</text>
</g>
<!-- 000200000020002021000201200010210001012001,49&#45;&gt;000200000020002021000201200010210001112001,50 -->
<g id="edge8" class="edge">
<title>000200000020002021000201200010210001012001,49&#45;&gt;000200000020002021000201200010210001112001,50</title>
<path fill="none" stroke="black" d="M602.11,-237.35C580.02,-213.38 554.48,-185.66 531.49,-160.7"/>
<polygon fill="black" stroke="black" points="533.79,-158.04 524.44,-153.05 528.64,-162.78 533.79,-158.04"/>
</g>
<!-- 000200000020002021000201200010210001012011,50 -->
<g id="node11" class="node">
<title>000200000020002021000201200010210001012011,50</title>
<ellipse fill="none" stroke="black" cx="658.19" cy="-87.74" rx="87.99" ry="87.99"/>
<text text-anchor="middle" x="658.19" y="-84.04" font-family="Times New Roman,serif" font-size="14.00">3.5143004115226333</text>
</g>
<!-- 000200000020002021000201200010210001012001,49&#45;&gt;000200000020002021000201200010210001012011,50 -->
<g id="edge11" class="edge">
<title>000200000020002021000201200010210001012001,49&#45;&gt;000200000020002021000201200010210001012011,50</title>
<path fill="none" stroke="black" d="M658.19,-215.73C658.19,-205.86 658.19,-195.71 658.19,-185.65"/>
<polygon fill="black" stroke="black" points="661.69,-185.64 658.19,-175.64 654.69,-185.64 661.69,-185.64"/>
</g>
<!-- 000200010020002021000201200010210001012001,50 -->
<g id="node12" class="node">
<title>000200010020002021000201200010210001012001,50</title>
<ellipse fill="none" stroke="black" cx="847.19" cy="-87.74" rx="83.39" ry="83.39"/>
<text text-anchor="middle" x="847.19" y="-84.04" font-family="Times New Roman,serif" font-size="14.00">3.762480761316872</text>
</g>
<!-- 000200000020002021000201200010210001012001,49&#45;&gt;000200010020002021000201200010210001012001,50 -->
<g id="edge7" class="edge">
<title>000200000020002021000201200010210001012001,49&#45;&gt;000200010020002021000201200010210001012001,50</title>
<path fill="none" stroke="black" d="M713.62,-236.79C736.03,-211.96 761.99,-183.18 785.03,-157.64"/>
<polygon fill="black" stroke="black" points="787.66,-159.95 791.76,-150.18 782.47,-155.26 787.66,-159.95"/>
</g>
<!-- 000200000020002021000201200010210001012101,50 -->
<g id="node13" class="node">
<title>000200000020002021000201200010210001012101,50</title>
<ellipse fill="none" stroke="black" cx="1031.19" cy="-87.74" rx="83.39" ry="83.39"/>
<text text-anchor="middle" x="1031.19" y="-84.04" font-family="Times New Roman,serif" font-size="14.00">4.603536522633744</text>
</g>
<!-- 000200000020002021000201200010210001012001,49&#45;&gt;000200000020002021000201200010210001012101,50 -->
<g id="edge10" class="edge">
<title>000200000020002021000201200010210001012001,49&#45;&gt;000200000020002021000201200010210001012101,50</title>
<path fill="none" stroke="black" d="M736.98,-272.13C795.44,-250.83 875.68,-217.45 939.19,-175.48 948.4,-169.4 957.54,-162.36 966.28,-154.98"/>
<polygon fill="black" stroke="black" points="968.59,-157.61 973.85,-148.41 964.01,-152.32 968.59,-157.61"/>
</g>
<!-- 000200000120000021000201200010210001212001,50 -->
<g id="node14" class="node">
<title>000200000120000021000201200010210001212001,50</title>
<ellipse fill="none" stroke="black" cx="1220.19" cy="-87.74" rx="87.99" ry="87.99"/>
<text text-anchor="middle" x="1220.19" y="-84.04" font-family="Times New Roman,serif" font-size="14.00">2.7765946502057623</text>
</g>
<!-- 000200000020000021000201200010210001212001,49&#45;&gt;000200000120000021000201200010210001212001,50 -->
<g id="edge15" class="edge">
<title>000200000020000021000201200010210001212001,49&#45;&gt;000200000120000021000201200010210001212001,50</title>
<path fill="none" stroke="black" d="M1698.88,-288.11C1600.91,-273.96 1439.56,-242.1 1316.19,-175.48 1306.81,-170.42 1297.61,-164.25 1288.84,-157.56"/>
<polygon fill="black" stroke="black" points="1290.93,-154.75 1280.92,-151.29 1286.58,-160.24 1290.93,-154.75"/>
</g>
<!-- 000200000020000021000201200010210011212001,50 -->
<g id="node15" class="node">
<title>000200000020000021000201200010210011212001,50</title>
<ellipse fill="none" stroke="black" cx="1413.19" cy="-87.74" rx="87.99" ry="87.99"/>
<text text-anchor="middle" x="1413.19" y="-84.04" font-family="Times New Roman,serif" font-size="14.00">4.1361754115226335</text>
</g>
<!-- 000200000020000021000201200010210001212001,49&#45;&gt;000200000020000021000201200010210011212001,50 -->
<g id="edge18" class="edge">
<title>000200000020000021000201200010210001212001,49&#45;&gt;000200000020000021000201200010210011212001,50</title>
<path fill="none" stroke="black" d="M1703.68,-269.32C1646.96,-247.62 1571.18,-214.93 1510.19,-175.48 1501.19,-169.66 1492.19,-163.01 1483.5,-156.05"/>
<polygon fill="black" stroke="black" points="1485.57,-153.22 1475.62,-149.58 1481.13,-158.63 1485.57,-153.22"/>
</g>
<!-- 000200000020000021000201200010210001212011,50 -->
<g id="node16" class="node">
<title>000200000020000021000201200010210001212011,50</title>
<ellipse fill="none" stroke="black" cx="1602.19" cy="-87.74" rx="83.39" ry="83.39"/>
<text text-anchor="middle" x="1602.19" y="-84.04" font-family="Times New Roman,serif" font-size="14.00">4.602842078189299</text>
</g>
<!-- 000200000020000021000201200010210001212001,49&#45;&gt;000200000020000021000201200010210001212011,50 -->
<g id="edge17" class="edge">
<title>000200000020000021000201200010210001212001,49&#45;&gt;000200000020000021000201200010210001212011,50</title>
<path fill="none" stroke="black" d="M1728.73,-232.81C1707.99,-209.19 1684.51,-182.46 1663.45,-158.49"/>
<polygon fill="black" stroke="black" points="1665.94,-156.01 1656.71,-150.81 1660.68,-160.63 1665.94,-156.01"/>
</g>
<!-- 000200000020001021000201200010210001212001,50 -->
<g id="node17" class="node">
<title>000200000020001021000201200010210001212001,50</title>
<ellipse fill="none" stroke="black" cx="1786.19" cy="-87.74" rx="83.39" ry="83.39"/>
<text text-anchor="middle" x="1786.19" y="-84.04" font-family="Times New Roman,serif" font-size="14.00">5.236522633744856</text>
</g>
<!-- 000200000020000021000201200010210001212001,49&#45;&gt;000200000020001021000201200010210001212001,50 -->
<g id="edge13" class="edge">
<title>000200000020000021000201200010210001212001,49&#45;&gt;000200000020001021000201200010210001212001,50</title>
<path fill="none" stroke="black" d="M1786.19,-211.21C1786.19,-201.36 1786.19,-191.3 1786.19,-181.39"/>
<polygon fill="black" stroke="black" points="1789.69,-181.12 1786.19,-171.12 1782.69,-181.12 1789.69,-181.12"/>
</g>
<!-- 000200000020000021000201200010210001212101,50 -->
<g id="node18" class="node">
<title>000200000020000021000201200010210001212101,50</title>
<ellipse fill="none" stroke="black" cx="1966.19" cy="-87.74" rx="79.09" ry="79.09"/>
<text text-anchor="middle" x="1966.19" y="-84.04" font-family="Times New Roman,serif" font-size="14.00">5.69207818930041</text>
</g>
<!-- 000200000020000021000201200010210001212001,49&#45;&gt;000200000020000021000201200010210001212101,50 -->
<g id="edge16" class="edge">
<title>000200000020000021000201200010210001212001,49&#45;&gt;000200000020000021000201200010210001212101,50</title>
<path fill="none" stroke="black" d="M1842.9,-232.23C1863.73,-207.99 1887.33,-180.53 1908.26,-156.16"/>
<polygon fill="black" stroke="black" points="1911.1,-158.23 1914.96,-148.37 1905.79,-153.67 1911.1,-158.23"/>
</g>
<!-- 000200000020000021000201200011210001212001,50 -->
<g id="node19" class="node">
<title>000200000020000021000201200011210001212001,50</title>
<ellipse fill="none" stroke="black" cx="2146.19" cy="-87.74" rx="83.39" ry="83.39"/>
<text text-anchor="middle" x="2146.19" y="-84.04" font-family="Times New Roman,serif" font-size="14.00">7.136522633744855</text>
</g>
<!-- 000200000020000021000201200010210001212001,49&#45;&gt;000200000020000021000201200011210001212001,50 -->
<g id="edge14" class="edge">
<title>000200000020000021000201200010210001212001,49&#45;&gt;000200000020000021000201200011210001212001,50</title>
<path fill="none" stroke="black" d="M1868.69,-268.59C1923.64,-246.93 1996.15,-214.58 2054.19,-175.48 2063.35,-169.32 2072.45,-162.23 2081.18,-154.82"/>
<polygon fill="black" stroke="black" points="2083.49,-157.44 2088.74,-148.24 2078.9,-152.16 2083.49,-157.44"/>
</g>
<!-- 000200000120000021000201200010210001012021,50 -->
<g id="node20" class="node">
<title>000200000120000021000201200010210001012021,50</title>
<ellipse fill="none" stroke="black" cx="2335.19" cy="-87.74" rx="87.99" ry="87.99"/>
<text text-anchor="middle" x="2335.19" y="-84.04" font-family="Times New Roman,serif" font-size="14.00">2.7765946502057623</text>
</g>
<!-- 000200000020000021000201200010210001012021,49&#45;&gt;000200000120000021000201200010210001012021,50 -->
<g id="edge21" class="edge">
<title>000200000020000021000201200010210001012021,49&#45;&gt;000200000120000021000201200010210001012021,50</title>
<path fill="none" stroke="black" d="M2542,-252.15C2507.78,-230.04 2467.11,-202.52 2432.19,-175.48 2423.78,-168.97 2415.18,-161.92 2406.75,-154.75"/>
<polygon fill="black" stroke="black" points="2408.93,-152 2399.07,-148.14 2404.37,-157.31 2408.93,-152"/>
</g>
<!-- 000200000020000021000201200010210001112021,50 -->
<g id="node21" class="node">
<title>000200000020000021000201200010210001112021,50</title>
<ellipse fill="none" stroke="black" cx="2524.19" cy="-87.74" rx="83.39" ry="83.39"/>
<text text-anchor="middle" x="2524.19" y="-84.04" font-family="Times New Roman,serif" font-size="14.00">4.602842078189299</text>
</g>
<!-- 000200000020000021000201200010210001012021,49&#45;&gt;000200000020000021000201200010210001112021,50 -->
<g id="edge20" class="edge">
<title>000200000020000021000201200010210001012021,49&#45;&gt;000200000020000021000201200010210001112021,50</title>
<path fill="none" stroke="black" d="M2581.15,-218.43C2574.67,-203.69 2567.89,-188.24 2561.35,-173.36"/>
<polygon fill="black" stroke="black" points="2564.55,-171.92 2557.32,-164.17 2558.14,-174.74 2564.55,-171.92"/>
</g>
<!-- 000200000020001021000201200010210001012021,50 -->
<g id="node22" class="node">
<title>000200000020001021000201200010210001012021,50</title>
<ellipse fill="none" stroke="black" cx="2708.19" cy="-87.74" rx="83.39" ry="83.39"/>
<text text-anchor="middle" x="2708.19" y="-84.04" font-family="Times New Roman,serif" font-size="14.00">5.236522633744856</text>
</g>
<!-- 000200000020000021000201200010210001012021,49&#45;&gt;000200000020001021000201200010210001012021,50 -->
<g id="edge19" class="edge">
<title>000200000020000021000201200010210001012021,49&#45;&gt;000200000020001021000201200010210001012021,50</title>
<path fill="none" stroke="black" d="M2651.24,-218.43C2657.71,-203.69 2664.5,-188.24 2671.03,-173.36"/>
<polygon fill="black" stroke="black" points="2674.25,-174.74 2675.06,-164.17 2667.84,-171.92 2674.25,-174.74"/>
</g>
<!-- 001200000220000021000201200010210001012001,50 -->
<g id="node23" class="node">
<title>001200000220000021000201200010210001012001,50</title>
<ellipse fill="none" stroke="black" cx="2897.19" cy="-87.74" rx="87.99" ry="87.99"/>
<text text-anchor="middle" x="2897.19" y="-84.04" font-family="Times New Roman,serif" font-size="14.00">3.6799833333333343</text>
</g>
<!-- 000200000220000021000201200010210001012001,49&#45;&gt;001200000220000021000201200010210001012001,50 -->
<g id="edge24" class="edge">
<title>000200000220000021000201200010210001012001,49&#45;&gt;001200000220000021000201200010210001012001,50</title>
<path fill="none" stroke="black" d="M3196.1,-270.84C3137.01,-249.43 3057.1,-216.46 2993.19,-175.48 2984.29,-169.78 2975.41,-163.23 2966.85,-156.36"/>
<polygon fill="black" stroke="black" points="2969.04,-153.62 2959.09,-149.96 2964.59,-159.02 2969.04,-153.62"/>
</g>
<!-- 000200000220000021000201200010210011012001,50 -->
<g id="node24" class="node">
<title>000200000220000021000201200010210011012001,50</title>
<ellipse fill="none" stroke="black" cx="3090.19" cy="-87.74" rx="87.99" ry="87.99"/>
<text text-anchor="middle" x="3090.19" y="-84.04" font-family="Times New Roman,serif" font-size="14.00">5.5892168724279845</text>
</g>
<!-- 000200000220000021000201200010210001012001,49&#45;&gt;000200000220000021000201200010210011012001,50 -->
<g id="edge27" class="edge">
<title>000200000220000021000201200010210001012001,49&#45;&gt;000200000220000021000201200010210011012001,50</title>
<path fill="none" stroke="black" d="M3220.69,-233.38C3200.04,-210.5 3176.71,-184.64 3155.54,-161.17"/>
<polygon fill="black" stroke="black" points="3158.05,-158.72 3148.75,-153.64 3152.85,-163.41 3158.05,-158.72"/>
</g>
<!-- 000200000220000021000201200010210001112001,50 -->
<g id="node25" class="node">
<title>000200000220000021000201200010210001112001,50</title>
<ellipse fill="none" stroke="black" cx="3279.19" cy="-87.74" rx="83.39" ry="83.39"/>
<text text-anchor="middle" x="3279.19" y="-84.04" font-family="Times New Roman,serif" font-size="14.00">6.055883539094649</text>
</g>
<!-- 000200000220000021000201200010210001012001,49&#45;&gt;000200000220000021000201200010210001112001,50 -->
<g id="edge23" class="edge">
<title>000200000220000021000201200010210001012001,49&#45;&gt;000200000220000021000201200010210001112001,50</title>
<path fill="none" stroke="black" d="M3279.19,-211.21C3279.19,-201.36 3279.19,-191.3 3279.19,-181.39"/>
<polygon fill="black" stroke="black" points="3282.69,-181.12 3279.19,-171.12 3275.69,-181.12 3282.69,-181.12"/>
</g>
<!-- 000200000220000021000201200010210001012011,50 -->
<g id="node26" class="node">
<title>000200000220000021000201200010210001012011,50</title>
<ellipse fill="none" stroke="black" cx="3459.19" cy="-87.74" rx="79.09" ry="79.09"/>
<text text-anchor="middle" x="3459.19" y="-84.04" font-family="Times New Roman,serif" font-size="14.00">6.05588353909465</text>
</g>
<!-- 000200000220000021000201200010210001012001,49&#45;&gt;000200000220000021000201200010210001012011,50 -->
<g id="edge26" class="edge">
<title>000200000220000021000201200010210001012001,49&#45;&gt;000200000220000021000201200010210001012011,50</title>
<path fill="none" stroke="black" d="M3335.9,-232.23C3356.73,-207.99 3380.33,-180.53 3401.26,-156.16"/>
<polygon fill="black" stroke="black" points="3404.1,-158.23 3407.96,-148.37 3398.79,-153.67 3404.1,-158.23"/>
</g>
<!-- 000200000220001021000201200010210001012001,50 -->
<g id="node27" class="node">
<title>000200000220001021000201200010210001012001,50</title>
<ellipse fill="none" stroke="black" cx="3639.19" cy="-87.74" rx="83.39" ry="83.39"/>
<text text-anchor="middle" x="3639.19" y="-84.04" font-family="Times New Roman,serif" font-size="14.00">6.689564094650205</text>
</g>
<!-- 000200000220000021000201200010210001012001,49&#45;&gt;000200000220001021000201200010210001012001,50 -->
<g id="edge22" class="edge">
<title>000200000220000021000201200010210001012001,49&#45;&gt;000200000220001021000201200010210001012001,50</title>
<path fill="none" stroke="black" d="M3361.69,-268.59C3416.64,-246.93 3489.15,-214.58 3547.19,-175.48 3556.35,-169.32 3565.45,-162.23 3574.18,-154.82"/>
<polygon fill="black" stroke="black" points="3576.49,-157.44 3581.74,-148.24 3571.9,-152.16 3576.49,-157.44"/>
</g>
<!-- 000200000220000021000201200010210001012101,50 -->
<g id="node28" class="node">
<title>000200000220000021000201200010210001012101,50</title>
<ellipse fill="none" stroke="black" cx="3828.19" cy="-87.74" rx="87.99" ry="87.99"/>
<text text-anchor="middle" x="3828.19" y="-84.04" font-family="Times New Roman,serif" font-size="14.00">7.1451196502057615</text>
</g>
<!-- 000200000220000021000201200010210001012001,49&#45;&gt;000200000220000021000201200010210001012101,50 -->
<g id="edge25" class="edge">
<title>000200000220000021000201200010210001012001,49&#45;&gt;000200000220000021000201200010210001012101,50</title>
<path fill="none" stroke="black" d="M3366.09,-286.85C3460.53,-271.79 3613.64,-239.31 3731.19,-175.48 3740.69,-170.33 3750.03,-164.07 3758.94,-157.3"/>
<polygon fill="black" stroke="black" points="3761.3,-159.89 3766.98,-150.95 3756.96,-154.39 3761.3,-159.89"/>
</g>
<!-- 000200000020000021000201200010211001012201,50 -->
<g id="node29" class="node">
<title>000200000020000021000201200010211001012201,50</title>
<ellipse fill="none" stroke="black" cx="4021.19" cy="-87.74" rx="87.99" ry="87.99"/>
<text text-anchor="middle" x="4021.19" y="-84.04" font-family="Times New Roman,serif" font-size="14.00">3.7920781893004114</text>
</g>
<!-- 000200000020000021000201200010210001012201,49&#45;&gt;000200000020000021000201200010211001012201,50 -->
<g id="edge31" class="edge">
<title>000200000020000021000201200010210001012201,49&#45;&gt;000200000020000021000201200010211001012201,50</title>
<path fill="none" stroke="black" d="M4311.68,-269.32C4254.96,-247.62 4179.18,-214.93 4118.19,-175.48 4109.19,-169.66 4100.19,-163.01 4091.5,-156.05"/>
<polygon fill="black" stroke="black" points="4093.57,-153.22 4083.62,-149.58 4089.13,-158.63 4093.57,-153.22"/>
</g>
<!-- 000200000120000021000201200010210001012201,50 -->
<g id="node30" class="node">
<title>000200000120000021000201200010210001012201,50</title>
<ellipse fill="none" stroke="black" cx="4210.19" cy="-87.74" rx="83.39" ry="83.39"/>
<text text-anchor="middle" x="4210.19" y="-84.04" font-family="Times New Roman,serif" font-size="14.00">4.065830761316874</text>
</g>
<!-- 000200000020000021000201200010210001012201,49&#45;&gt;000200000120000021000201200010210001012201,50 -->
<g id="edge30" class="edge">
<title>000200000020000021000201200010210001012201,49&#45;&gt;000200000120000021000201200010210001012201,50</title>
<path fill="none" stroke="black" d="M4336.73,-232.81C4315.99,-209.19 4292.51,-182.46 4271.45,-158.49"/>
<polygon fill="black" stroke="black" points="4273.94,-156.01 4264.71,-150.81 4268.68,-160.63 4273.94,-156.01"/>
</g>
<!-- 000200000020000021000201200010210011012201,50 -->
<g id="node31" class="node">
<title>000200000020000021000201200010210011012201,50</title>
<ellipse fill="none" stroke="black" cx="4394.19" cy="-87.74" rx="83.39" ry="83.39"/>
<text text-anchor="middle" x="4394.19" y="-84.04" font-family="Times New Roman,serif" font-size="14.00">5.425411522633745</text>
</g>
<!-- 000200000020000021000201200010210001012201,49&#45;&gt;000200000020000021000201200010210011012201,50 -->
<g id="edge33" class="edge">
<title>000200000020000021000201200010210001012201,49&#45;&gt;000200000020000021000201200010210011012201,50</title>
<path fill="none" stroke="black" d="M4394.19,-211.21C4394.19,-201.36 4394.19,-191.3 4394.19,-181.39"/>
<polygon fill="black" stroke="black" points="4397.69,-181.12 4394.19,-171.12 4390.69,-181.12 4397.69,-181.12"/>
</g>
<!-- 000200000020000021000201200010210001112201,50 -->
<g id="node32" class="node">
<title>000200000020000021000201200010210001112201,50</title>
<ellipse fill="none" stroke="black" cx="4578.19" cy="-87.74" rx="83.39" ry="83.39"/>
<text text-anchor="middle" x="4578.19" y="-84.04" font-family="Times New Roman,serif" font-size="14.00">5.892078189300411</text>
</g>
<!-- 000200000020000021000201200010210001012201,49&#45;&gt;000200000020000021000201200010210001112201,50 -->
<g id="edge29" class="edge">
<title>000200000020000021000201200010210001012201,49&#45;&gt;000200000020000021000201200010210001112201,50</title>
<path fill="none" stroke="black" d="M4451.65,-232.81C4472.4,-209.19 4495.88,-182.46 4516.93,-158.49"/>
<polygon fill="black" stroke="black" points="4519.71,-160.63 4523.68,-150.81 4514.45,-156.01 4519.71,-160.63"/>
</g>
<!-- 000200000020000021000201200010210001012211,50 -->
<g id="node33" class="node">
<title>000200000020000021000201200010210001012211,50</title>
<ellipse fill="none" stroke="black" cx="4762.19" cy="-87.74" rx="83.39" ry="83.39"/>
<text text-anchor="middle" x="4762.19" y="-84.04" font-family="Times New Roman,serif" font-size="14.00">5.892078189300411</text>
</g>
<!-- 000200000020000021000201200010210001012201,49&#45;&gt;000200000020000021000201200010210001012211,50 -->
<g id="edge32" class="edge">
<title>000200000020000021000201200010210001012201,49&#45;&gt;000200000020000021000201200010210001012211,50</title>
<path fill="none" stroke="black" d="M4477.04,-269.82C4533.9,-248.35 4609.73,-215.73 4670.19,-175.48 4679.38,-169.37 4688.51,-162.31 4697.24,-154.92"/>
<polygon fill="black" stroke="black" points="4699.55,-157.54 4704.81,-148.35 4694.97,-152.26 4699.55,-157.54"/>
</g>
<!-- 000200000020001021000201200010210001012201,50 -->
<g id="node34" class="node">
<title>000200000020001021000201200010210001012201,50</title>
<ellipse fill="none" stroke="black" cx="4946.19" cy="-87.74" rx="83.39" ry="83.39"/>
<text text-anchor="middle" x="4946.19" y="-84.04" font-family="Times New Roman,serif" font-size="14.00">6.525758744855967</text>
</g>
<!-- 000200000020000021000201200010210001012201,49&#45;&gt;000200000020001021000201200010210001012201,50 -->
<g id="edge28" class="edge">
<title>000200000020000021000201200010210001012201,49&#45;&gt;000200000020001021000201200010210001012201,50</title>
<path fill="none" stroke="black" d="M4481.65,-287.95C4577.93,-273.77 4734.88,-241.97 4854.19,-175.48 4863.98,-170.03 4873.52,-163.3 4882.53,-156.02"/>
<polygon fill="black" stroke="black" points="4884.89,-158.62 4890.3,-149.51 4880.39,-153.25 4884.89,-158.62"/>
</g>
<!-- 000200000120000021000201200010210021012001,50 -->
<g id="node35" class="node">
<title>000200000120000021000201200010210021012001,50</title>
<ellipse fill="none" stroke="black" cx="5130.19" cy="-87.74" rx="83.39" ry="83.39"/>
<text text-anchor="middle" x="5130.19" y="-84.04" font-family="Times New Roman,serif" font-size="14.00">4.109927983539096</text>
</g>
<!-- 000200000020000021000201200010210021012001,49&#45;&gt;000200000120000021000201200010210021012001,50 -->
<g id="edge36" class="edge">
<title>000200000020000021000201200010210021012001,49&#45;&gt;000200000120000021000201200010210021012001,50</title>
<path fill="none" stroke="black" d="M5419.62,-271.43C5362.32,-250 5284.18,-216.74 5222.19,-175.48 5213.01,-169.37 5203.88,-162.31 5195.14,-154.92"/>
<polygon fill="black" stroke="black" points="5197.42,-152.26 5187.57,-148.35 5192.83,-157.54 5197.42,-152.26"/>
</g>
<!-- 000200000020000021000201200110210021012001,50 -->
<g id="node36" class="node">
<title>000200000020000021000201200110210021012001,50</title>
<ellipse fill="none" stroke="black" cx="5314.19" cy="-87.74" rx="83.39" ry="83.39"/>
<text text-anchor="middle" x="5314.19" y="-84.04" font-family="Times New Roman,serif" font-size="14.00">5.292078189300412</text>
</g>
<!-- 000200000020000021000201200010210021012001,49&#45;&gt;000200000020000021000201200110210021012001,50 -->
<g id="edge39" class="edge">
<title>000200000020000021000201200010210021012001,49&#45;&gt;000200000020000021000201200110210021012001,50</title>
<path fill="none" stroke="black" d="M5443.73,-236.22C5422.32,-211.84 5397.63,-183.73 5375.58,-158.63"/>
<polygon fill="black" stroke="black" points="5378.06,-156.15 5368.83,-150.95 5372.8,-160.77 5378.06,-156.15"/>
</g>
<!-- 000200000020000021000201200010210021112001,50 -->
<g id="node37" class="node">
<title>000200000020000021000201200010210021112001,50</title>
<ellipse fill="none" stroke="black" cx="5498.19" cy="-87.74" rx="83.39" ry="83.39"/>
<text text-anchor="middle" x="5498.19" y="-84.04" font-family="Times New Roman,serif" font-size="14.00">5.936175411522633</text>
</g>
<!-- 000200000020000021000201200010210021012001,49&#45;&gt;000200000020000021000201200010210021112001,50 -->
<g id="edge35" class="edge">
<title>000200000020000021000201200010210021012001,49&#45;&gt;000200000020000021000201200010210021112001,50</title>
<path fill="none" stroke="black" d="M5498.19,-215.73C5498.19,-204.4 5498.19,-192.7 5498.19,-181.2"/>
<polygon fill="black" stroke="black" points="5501.69,-181.16 5498.19,-171.16 5494.69,-181.16 5501.69,-181.16"/>
</g>
<!-- 000200000020000021000201200010210021012011,50 -->
<g id="node38" class="node">
<title>000200000020000021000201200010210021012011,50</title>
<ellipse fill="none" stroke="black" cx="5682.19" cy="-87.74" rx="83.39" ry="83.39"/>
<text text-anchor="middle" x="5682.19" y="-84.04" font-family="Times New Roman,serif" font-size="14.00">5.936175411522634</text>
</g>
<!-- 000200000020000021000201200010210021012001,49&#45;&gt;000200000020000021000201200010210021012011,50 -->
<g id="edge38" class="edge">
<title>000200000020000021000201200010210021012001,49&#45;&gt;000200000020000021000201200010210021012011,50</title>
<path fill="none" stroke="black" d="M5552.65,-236.22C5574.07,-211.84 5598.76,-183.73 5620.81,-158.63"/>
<polygon fill="black" stroke="black" points="5623.59,-160.77 5627.56,-150.95 5618.33,-156.15 5623.59,-160.77"/>
</g>
<!-- 000200000020001021000201200010210021012001,50 -->
<g id="node39" class="node">
<title>000200000020001021000201200010210021012001,50</title>
<ellipse fill="none" stroke="black" cx="5866.19" cy="-87.74" rx="83.39" ry="83.39"/>
<text text-anchor="middle" x="5866.19" y="-84.04" font-family="Times New Roman,serif" font-size="14.00">6.569855967078189</text>
</g>
<!-- 000200000020000021000201200010210021012001,49&#45;&gt;000200000020001021000201200010210021012001,50 -->
<g id="edge34" class="edge">
<title>000200000020000021000201200010210021012001,49&#45;&gt;000200000020001021000201200010210021012001,50</title>
<path fill="none" stroke="black" d="M5576.76,-271.43C5634.06,-250 5712.2,-216.74 5774.19,-175.48 5783.38,-169.37 5792.51,-162.31 5801.24,-154.92"/>
<polygon fill="black" stroke="black" points="5803.55,-157.54 5808.81,-148.35 5798.97,-152.26 5803.55,-157.54"/>
</g>
<!-- 000200000020000021000201200010210021012101,50 -->
<g id="node40" class="node">
<title>000200000020000021000201200010210021012101,50</title>
<ellipse fill="none" stroke="black" cx="6050.19" cy="-87.74" rx="83.39" ry="83.39"/>
<text text-anchor="middle" x="6050.19" y="-84.04" font-family="Times New Roman,serif" font-size="14.00">7.025411522633745</text>
</g>
<!-- 000200000020000021000201200010210021012001,49&#45;&gt;000200000020000021000201200010210021012101,50 -->
<g id="edge37" class="edge">
<title>000200000020000021000201200010210021012001,49&#45;&gt;000200000020000021000201200010210021012101,50</title>
<path fill="none" stroke="black" d="M5580.89,-288.65C5676.69,-274.81 5836.89,-243.08 5958.19,-175.48 5967.98,-170.03 5977.52,-163.3 5986.53,-156.02"/>
<polygon fill="black" stroke="black" points="5988.89,-158.62 5994.3,-149.51 5984.39,-153.25 5988.89,-158.62"/>
</g>
</g>
</svg>
