<?xml version="1.0" encoding="UTF-8" standalone="no"?>
<!DOCTYPE svg PUBLIC "-//W3C//DTD SVG 1.1//EN"
 "http://www.w3.org/Graphics/SVG/1.1/DTD/svg11.dtd">
<!-- Generated by graphviz version 3.0.0 (20220226.1711)
 -->
<!-- Title: tree Pages: 1 -->
<svg width="6662pt" height="606pt"
 viewBox="0.00 0.00 6662.39 606.45" xmlns="http://www.w3.org/2000/svg" xmlns:xlink="http://www.w3.org/1999/xlink">
<g id="graph0" class="graph" transform="scale(1 1) rotate(0) translate(4 602.45)">
<title>tree</title>
<polygon fill="white" stroke="transparent" points="-4,4 -4,-602.45 6658.39,-602.45 6658.39,4 -4,4"/>
<!-- 000200000020000021000001200010210001012000,50 -->
<g id="node1" class="node">
<title>000200000020000021000001200010210001012000,50</title>
<ellipse fill="none" stroke="black" cx="3335.19" cy="-510.71" rx="87.99" ry="87.99"/>
<text text-anchor="middle" x="3335.19" y="-507.01" font-family="Times New Roman,serif" font-size="14.00">3.4387474279835404</text>
</g>
<!-- 000200000020000021000001200010210001012020,49 -->
<g id="node2" class="node">
<title>000200000020000021000001200010210001012020,49</title>
<ellipse fill="none" stroke="black" cx="635.19" cy="-299.23" rx="83.39" ry="83.39"/>
<text text-anchor="middle" x="635.19" y="-295.53" font-family="Times New Roman,serif" font-size="14.00">1.493955761316873</text>
</g>
<!-- 000200000020000021000001200010210001012000,50&#45;&gt;000200000020000021000001200010210001012020,49 -->
<g id="edge5" class="edge">
<title>000200000020000021000001200010210001012000,50&#45;&gt;000200000020000021000001200010210001012020,49</title>
<path fill="none" stroke="black" d="M3247.64,-503.63C2999.21,-486.3 2268.62,-434.82 1662.19,-386.97 1317.53,-359.77 908.08,-324.21 728,-308.41"/>
<polygon fill="black" stroke="black" points="728.3,-304.92 718.03,-307.54 727.69,-311.9 728.3,-304.92"/>
</g>
<!-- 000200000020000021000001200010210001212000,49 -->
<g id="node3" class="node">
<title>000200000020000021000001200010210001212000,49</title>
<ellipse fill="none" stroke="black" cx="1759.19" cy="-299.23" rx="87.99" ry="87.99"/>
<text text-anchor="middle" x="1759.19" y="-295.53" font-family="Times New Roman,serif" font-size="14.00">1.5495113168724293</text>
</g>
<!-- 000200000020000021000001200010210001012000,50&#45;&gt;000200000020000021000001200010210001212000,49 -->
<g id="edge2" class="edge">
<title>000200000020000021000001200010210001012000,50&#45;&gt;000200000020000021000001200010210001212000,49</title>
<path fill="none" stroke="black" d="M3248.22,-498.15C2976.06,-461.97 2141.93,-351.1 1856.31,-313.14"/>
<polygon fill="black" stroke="black" points="1856.76,-309.66 1846.39,-311.82 1855.84,-316.6 1856.76,-309.66"/>
</g>
<!-- 000200000020000021000001200010210001012200,49 -->
<g id="node4" class="node">
<title>000200000020000021000001200010210001012200,49</title>
<ellipse fill="none" stroke="black" cx="2874.19" cy="-299.23" rx="87.99" ry="87.99"/>
<text text-anchor="middle" x="2874.19" y="-295.53" font-family="Times New Roman,serif" font-size="14.00">2.5773481893004115</text>
</g>
<!-- 000200000020000021000001200010210001012000,50&#45;&gt;000200000020000021000001200010210001012200,49 -->
<g id="edge4" class="edge">
<title>000200000020000021000001200010210001012000,50&#45;&gt;000200000020000021000001200010210001012200,49</title>
<path fill="none" stroke="black" d="M3255.68,-473.58C3174.25,-436.58 3047.93,-379.18 2963.2,-340.67"/>
<polygon fill="black" stroke="black" points="2964.41,-337.38 2953.86,-336.43 2961.51,-343.75 2964.41,-337.38"/>
</g>
<!-- 000200000020000021000001200010210001012002,49 -->
<g id="node5" class="node">
<title>000200000020000021000001200010210001012002,49</title>
<ellipse fill="none" stroke="black" cx="3796.19" cy="-299.23" rx="87.99" ry="87.99"/>
<text text-anchor="middle" x="3796.19" y="-295.53" font-family="Times New Roman,serif" font-size="14.00">2.7436085390946507</text>
</g>
<!-- 000200000020000021000001200010210001012000,50&#45;&gt;000200000020000021000001200010210001012002,49 -->
<g id="edge6" class="edge">
<title>000200000020000021000001200010210001012000,50&#45;&gt;000200000020000021000001200010210001012002,49</title>
<path fill="none" stroke="black" d="M3414.7,-473.58C3496.13,-436.58 3622.46,-379.18 3707.18,-340.67"/>
<polygon fill="black" stroke="black" points="3708.87,-343.75 3716.53,-336.43 3705.98,-337.38 3708.87,-343.75"/>
</g>
<!-- 000200000220000021000001200010210001012000,49 -->
<g id="node6" class="node">
<title>000200000220000021000001200010210001012000,49</title>
<ellipse fill="none" stroke="black" cx="4903.19" cy="-299.23" rx="87.99" ry="87.99"/>
<text text-anchor="middle" x="4903.19" y="-295.53" font-family="Times New Roman,serif" font-size="14.00">2.9133166666666677</text>
</g>
<!-- 000200000020000021000001200010210001012000,50&#45;&gt;000200000220000021000001200010210001012000,49 -->
<g id="edge3" class="edge">
<title>000200000020000021000001200010210001012000,50&#45;&gt;000200000220000021000001200010210001012000,49</title>
<path fill="none" stroke="black" d="M3422.29,-498.07C3693.39,-461.86 4521.01,-351.29 4805.75,-313.25"/>
<polygon fill="black" stroke="black" points="4806.61,-316.66 4816.05,-311.87 4805.68,-309.72 4806.61,-316.66"/>
</g>
<!-- 000200000020000021000201200010210001012000,49 -->
<g id="node7" class="node">
<title>000200000020000021000201200010210001012000,49</title>
<ellipse fill="none" stroke="black" cx="6035.19" cy="-299.23" rx="87.99" ry="87.99"/>
<text text-anchor="middle" x="6035.19" y="-295.53" font-family="Times New Roman,serif" font-size="14.00">3.4387474279835404</text>
</g>
<!-- 000200000020000021000001200010210001012000,50&#45;&gt;000200000020000021000201200010210001012000,49 -->
<g id="edge1" class="edge">
<title>000200000020000021000001200010210001012000,50&#45;&gt;000200000020000021000201200010210001012000,49</title>
<path fill="none" stroke="black" d="M3422.77,-503.57C3670.43,-486.12 4397.01,-434.48 5000.19,-386.97 5344.88,-359.82 5753.88,-324.68 5937.47,-308.75"/>
<polygon fill="black" stroke="black" points="5937.98,-312.21 5947.64,-307.86 5937.37,-305.24 5937.98,-312.21"/>
</g>
<!-- 000200000120000021000001200010210001012020,50 -->
<g id="node8" class="node">
<title>000200000120000021000001200010210001012020,50</title>
<ellipse fill="none" stroke="black" cx="83.19" cy="-87.74" rx="83.39" ry="83.39"/>
<text text-anchor="middle" x="83.19" y="-84.04" font-family="Times New Roman,serif" font-size="14.00">1.493955761316873</text>
</g>
<!-- 000200000020000021000001200010210001012020,49&#45;&gt;000200000120000021000001200010210001012020,50 -->
<g id="edge9" class="edge">
<title>000200000020000021000001200010210001012020,49&#45;&gt;000200000120000021000001200010210001012020,50</title>
<path fill="none" stroke="black" d="M552.5,-288.65C456.69,-274.81 296.49,-243.08 175.19,-175.48 165.4,-170.03 155.86,-163.3 146.85,-156.02"/>
<polygon fill="black" stroke="black" points="149,-153.25 139.09,-149.51 144.5,-158.62 149,-153.25"/>
</g>
<!-- 000200000020000021000101200010210001012020,50 -->
<g id="node9" class="node">
<title>000200000020000021000101200010210001012020,50</title>
<ellipse fill="none" stroke="black" cx="267.19" cy="-87.74" rx="83.39" ry="83.39"/>
<text text-anchor="middle" x="267.19" y="-84.04" font-family="Times New Roman,serif" font-size="14.00">3.321792633744855</text>
</g>
<!-- 000200000020000021000001200010210001012020,49&#45;&gt;000200000020000021000101200010210001012020,50 -->
<g id="edge7" class="edge">
<title>000200000020000021000001200010210001012020,49&#45;&gt;000200000020000021000101200010210001012020,50</title>
<path fill="none" stroke="black" d="M556.62,-271.43C499.32,-250 421.18,-216.74 359.19,-175.48 350.01,-169.37 340.88,-162.31 332.14,-154.92"/>
<polygon fill="black" stroke="black" points="334.42,-152.26 324.57,-148.35 329.83,-157.54 334.42,-152.26"/>
</g>
<!-- 000200000020000021000001200010210001112020,50 -->
<g id="node10" class="node">
<title>000200000020000021000001200010210001112020,50</title>
<ellipse fill="none" stroke="black" cx="451.19" cy="-87.74" rx="83.39" ry="83.39"/>
<text text-anchor="middle" x="451.19" y="-84.04" font-family="Times New Roman,serif" font-size="14.00">3.388112078189299</text>
</g>
<!-- 000200000020000021000001200010210001012020,49&#45;&gt;000200000020000021000001200010210001112020,50 -->
<g id="edge8" class="edge">
<title>000200000020000021000001200010210001012020,49&#45;&gt;000200000020000021000001200010210001112020,50</title>
<path fill="none" stroke="black" d="M580.73,-236.22C559.32,-211.84 534.63,-183.73 512.58,-158.63"/>
<polygon fill="black" stroke="black" points="515.06,-156.15 505.83,-150.95 509.8,-160.77 515.06,-156.15"/>
</g>
<!-- 000200000020000021000001200010210001012021,50 -->
<g id="node11" class="node">
<title>000200000020000021000001200010210001012021,50</title>
<ellipse fill="none" stroke="black" cx="635.19" cy="-87.74" rx="83.39" ry="83.39"/>
<text text-anchor="middle" x="635.19" y="-84.04" font-family="Times New Roman,serif" font-size="14.00">3.925411522633744</text>
</g>
<!-- 000200000020000021000001200010210001012020,49&#45;&gt;000200000020000021000001200010210001012021,50 -->
<g id="edge12" class="edge">
<title>000200000020000021000001200010210001012020,49&#45;&gt;000200000020000021000001200010210001012021,50</title>
<path fill="none" stroke="black" d="M635.19,-215.73C635.19,-204.4 635.19,-192.7 635.19,-181.2"/>
<polygon fill="black" stroke="black" points="638.69,-181.16 635.19,-171.16 631.69,-181.16 638.69,-181.16"/>
</g>
<!-- 000200000020000021000001200010210101012020,50 -->
<g id="node12" class="node">
<title>000200000020000021000001200010210101012020,50</title>
<ellipse fill="none" stroke="black" cx="819.19" cy="-87.74" rx="83.39" ry="83.39"/>
<text text-anchor="middle" x="819.19" y="-84.04" font-family="Times New Roman,serif" font-size="14.00">3.936522633744856</text>
</g>
<!-- 000200000020000021000001200010210001012020,49&#45;&gt;000200000020000021000001200010210101012020,50 -->
<g id="edge11" class="edge">
<title>000200000020000021000001200010210001012020,49&#45;&gt;000200000020000021000001200010210101012020,50</title>
<path fill="none" stroke="black" d="M689.65,-236.22C711.07,-211.84 735.76,-183.73 757.81,-158.63"/>
<polygon fill="black" stroke="black" points="760.59,-160.77 764.56,-150.95 755.33,-156.15 760.59,-160.77"/>
</g>
<!-- 000200000020000021000001200010210001012120,50 -->
<g id="node13" class="node">
<title>000200000020000021000001200010210001012120,50</title>
<ellipse fill="none" stroke="black" cx="1003.19" cy="-87.74" rx="83.39" ry="83.39"/>
<text text-anchor="middle" x="1003.19" y="-84.04" font-family="Times New Roman,serif" font-size="14.00">3.977348189300411</text>
</g>
<!-- 000200000020000021000001200010210001012020,49&#45;&gt;000200000020000021000001200010210001012120,50 -->
<g id="edge10" class="edge">
<title>000200000020000021000001200010210001012020,49&#45;&gt;000200000020000021000001200010210001012120,50</title>
<path fill="none" stroke="black" d="M713.76,-271.43C771.06,-250 849.2,-216.74 911.19,-175.48 920.38,-169.37 929.51,-162.31 938.24,-154.92"/>
<polygon fill="black" stroke="black" points="940.55,-157.54 945.81,-148.35 935.97,-152.26 940.55,-157.54"/>
</g>
<!-- 000200000120000021000001200010210001212000,50 -->
<g id="node14" class="node">
<title>000200000120000021000001200010210001212000,50</title>
<ellipse fill="none" stroke="black" cx="1192.19" cy="-87.74" rx="87.99" ry="87.99"/>
<text text-anchor="middle" x="1192.19" y="-84.04" font-family="Times New Roman,serif" font-size="14.00">1.5495113168724293</text>
</g>
<!-- 000200000020000021000001200010210001212000,49&#45;&gt;000200000120000021000001200010210001212000,50 -->
<g id="edge15" class="edge">
<title>000200000020000021000001200010210001212000,49&#45;&gt;000200000120000021000001200010210001212000,50</title>
<path fill="none" stroke="black" d="M1671.95,-287.99C1574.03,-273.74 1412.73,-241.78 1289.19,-175.48 1279.67,-170.37 1270.31,-164.14 1261.4,-157.39"/>
<polygon fill="black" stroke="black" points="1263.37,-154.48 1253.35,-151.05 1259.04,-159.99 1263.37,-154.48"/>
</g>
<!-- 000200000020000021000001200010210001212010,50 -->
<g id="node15" class="node">
<title>000200000020000021000001200010210001212010,50</title>
<ellipse fill="none" stroke="black" cx="1381.19" cy="-87.74" rx="83.39" ry="83.39"/>
<text text-anchor="middle" x="1381.19" y="-84.04" font-family="Times New Roman,serif" font-size="14.00">2.888112078189299</text>
</g>
<!-- 000200000020000021000001200010210001212000,49&#45;&gt;000200000020000021000001200010210001212010,50 -->
<g id="edge17" class="edge">
<title>000200000020000021000001200010210001212000,49&#45;&gt;000200000020000021000001200010210001212010,50</title>
<path fill="none" stroke="black" d="M1675.83,-271.25C1616.61,-250.04 1536.66,-217.13 1473.19,-175.48 1463.97,-169.43 1454.81,-162.41 1446.07,-155.03"/>
<polygon fill="black" stroke="black" points="1448.34,-152.37 1438.49,-148.48 1443.76,-157.67 1448.34,-152.37"/>
</g>
<!-- 000200000020000021000101200010210001212000,50 -->
<g id="node16" class="node">
<title>000200000020000021000101200010210001212000,50</title>
<ellipse fill="none" stroke="black" cx="1570.19" cy="-87.74" rx="87.99" ry="87.99"/>
<text text-anchor="middle" x="1570.19" y="-84.04" font-family="Times New Roman,serif" font-size="14.00">3.3773481893004105</text>
</g>
<!-- 000200000020000021000001200010210001212000,49&#45;&gt;000200000020000021000101200010210001212000,50 -->
<g id="edge13" class="edge">
<title>000200000020000021000001200010210001212000,49&#45;&gt;000200000020000021000101200010210001212000,50</title>
<path fill="none" stroke="black" d="M1700.69,-233.38C1680.04,-210.5 1656.71,-184.64 1635.54,-161.17"/>
<polygon fill="black" stroke="black" points="1638.05,-158.72 1628.75,-153.64 1632.85,-163.41 1638.05,-158.72"/>
</g>
<!-- 000200000020000021000001200010210001212001,50 -->
<g id="node17" class="node">
<title>000200000020000021000001200010210001212001,50</title>
<ellipse fill="none" stroke="black" cx="1759.19" cy="-87.74" rx="83.39" ry="83.39"/>
<text text-anchor="middle" x="1759.19" y="-84.04" font-family="Times New Roman,serif" font-size="14.00">3.925411522633744</text>
</g>
<!-- 000200000020000021000001200010210001212000,49&#45;&gt;000200000020000021000001200010210001212001,50 -->
<g id="edge18" class="edge">
<title>000200000020000021000001200010210001212000,49&#45;&gt;000200000020000021000001200010210001212001,50</title>
<path fill="none" stroke="black" d="M1759.19,-211.21C1759.19,-201.36 1759.19,-191.3 1759.19,-181.39"/>
<polygon fill="black" stroke="black" points="1762.69,-181.12 1759.19,-171.12 1755.69,-181.12 1762.69,-181.12"/>
</g>
<!-- 000200000020000021000001200010210001212100,50 -->
<g id="node18" class="node">
<title>000200000020000021000001200010210001212100,50</title>
<ellipse fill="none" stroke="black" cx="1943.19" cy="-87.74" rx="83.39" ry="83.39"/>
<text text-anchor="middle" x="1943.19" y="-84.04" font-family="Times New Roman,serif" font-size="14.00">3.977348189300411</text>
</g>
<!-- 000200000020000021000001200010210001212000,49&#45;&gt;000200000020000021000001200010210001212100,50 -->
<g id="edge16" class="edge">
<title>000200000020000021000001200010210001212000,49&#45;&gt;000200000020000021000001200010210001212100,50</title>
<path fill="none" stroke="black" d="M1816.65,-232.81C1837.4,-209.19 1860.88,-182.46 1881.93,-158.49"/>
<polygon fill="black" stroke="black" points="1884.71,-160.63 1888.68,-150.81 1879.45,-156.01 1884.71,-160.63"/>
</g>
<!-- 000200000020000021000001200011210001212000,50 -->
<g id="node19" class="node">
<title>000200000020000021000001200011210001212000,50</title>
<ellipse fill="none" stroke="black" cx="2123.19" cy="-87.74" rx="79.09" ry="79.09"/>
<text text-anchor="middle" x="2123.19" y="-84.04" font-family="Times New Roman,serif" font-size="14.00">5.97734818930041</text>
</g>
<!-- 000200000020000021000001200010210001212000,49&#45;&gt;000200000020000021000001200011210001212000,50 -->
<g id="edge14" class="edge">
<title>000200000020000021000001200010210001212000,49&#45;&gt;000200000020000021000001200011210001212000,50</title>
<path fill="none" stroke="black" d="M1842.32,-270.25C1899.32,-248.97 1975.18,-216.39 2035.19,-175.48 2044.52,-169.13 2053.72,-161.72 2062.47,-153.97"/>
<polygon fill="black" stroke="black" points="2064.99,-156.4 2070.02,-147.08 2060.27,-151.23 2064.99,-156.4"/>
</g>
<!-- 000200000020000021000001200010211001012200,50 -->
<g id="node20" class="node">
<title>000200000020000021000001200010211001012200,50</title>
<ellipse fill="none" stroke="black" cx="2308.19" cy="-87.74" rx="87.99" ry="87.99"/>
<text text-anchor="middle" x="2308.19" y="-84.04" font-family="Times New Roman,serif" font-size="14.00">2.5773481893004115</text>
</g>
<!-- 000200000020000021000001200010210001012200,49&#45;&gt;000200000020000021000001200010211001012200,50 -->
<g id="edge22" class="edge">
<title>000200000020000021000001200010210001012200,49&#45;&gt;000200000020000021000001200010211001012200,50</title>
<path fill="none" stroke="black" d="M2786.88,-288.11C2688.91,-273.96 2527.56,-242.1 2404.19,-175.48 2394.81,-170.42 2385.61,-164.25 2376.84,-157.56"/>
<polygon fill="black" stroke="black" points="2378.93,-154.75 2368.92,-151.29 2374.58,-160.24 2378.93,-154.75"/>
</g>
<!-- 000200000120000021000001200010210001012200,50 -->
<g id="node21" class="node">
<title>000200000120000021000001200010210001012200,50</title>
<ellipse fill="none" stroke="black" cx="2501.19" cy="-87.74" rx="87.99" ry="87.99"/>
<text text-anchor="middle" x="2501.19" y="-84.04" font-family="Times New Roman,serif" font-size="14.00">2.7831918724279845</text>
</g>
<!-- 000200000020000021000001200010210001012200,49&#45;&gt;000200000120000021000001200010210001012200,50 -->
<g id="edge21" class="edge">
<title>000200000020000021000001200010210001012200,49&#45;&gt;000200000120000021000001200010210001012200,50</title>
<path fill="none" stroke="black" d="M2791.68,-269.32C2734.96,-247.62 2659.18,-214.93 2598.19,-175.48 2589.19,-169.66 2580.19,-163.01 2571.5,-156.05"/>
<polygon fill="black" stroke="black" points="2573.57,-153.22 2563.62,-149.58 2569.13,-158.63 2573.57,-153.22"/>
</g>
<!-- 000200000020000021000001200010210001012210,50 -->
<g id="node22" class="node">
<title>000200000020000021000001200010210001012210,50</title>
<ellipse fill="none" stroke="black" cx="2690.19" cy="-87.74" rx="83.39" ry="83.39"/>
<text text-anchor="middle" x="2690.19" y="-84.04" font-family="Times New Roman,serif" font-size="14.00">4.177348189300411</text>
</g>
<!-- 000200000020000021000001200010210001012200,49&#45;&gt;000200000020000021000001200010210001012210,50 -->
<g id="edge23" class="edge">
<title>000200000020000021000001200010210001012200,49&#45;&gt;000200000020000021000001200010210001012210,50</title>
<path fill="none" stroke="black" d="M2816.73,-232.81C2795.99,-209.19 2772.51,-182.46 2751.45,-158.49"/>
<polygon fill="black" stroke="black" points="2753.94,-156.01 2744.71,-150.81 2748.68,-160.63 2753.94,-156.01"/>
</g>
<!-- 000200000020000021000101200010210001012200,50 -->
<g id="node23" class="node">
<title>000200000020000021000101200010210001012200,50</title>
<ellipse fill="none" stroke="black" cx="2874.19" cy="-87.74" rx="83.39" ry="83.39"/>
<text text-anchor="middle" x="2874.19" y="-84.04" font-family="Times New Roman,serif" font-size="14.00">4.611028744855966</text>
</g>
<!-- 000200000020000021000001200010210001012200,49&#45;&gt;000200000020000021000101200010210001012200,50 -->
<g id="edge19" class="edge">
<title>000200000020000021000001200010210001012200,49&#45;&gt;000200000020000021000101200010210001012200,50</title>
<path fill="none" stroke="black" d="M2874.19,-211.21C2874.19,-201.36 2874.19,-191.3 2874.19,-181.39"/>
<polygon fill="black" stroke="black" points="2877.69,-181.12 2874.19,-171.12 2870.69,-181.12 2877.69,-181.12"/>
</g>
<!-- 000200000020000021000001200010210001112200,50 -->
<g id="node24" class="node">
<title>000200000020000021000001200010210001112200,50</title>
<ellipse fill="none" stroke="black" cx="3054.19" cy="-87.74" rx="79.09" ry="79.09"/>
<text text-anchor="middle" x="3054.19" y="-84.04" font-family="Times New Roman,serif" font-size="14.00">4.67734818930041</text>
</g>
<!-- 000200000020000021000001200010210001012200,49&#45;&gt;000200000020000021000001200010210001112200,50 -->
<g id="edge20" class="edge">
<title>000200000020000021000001200010210001012200,49&#45;&gt;000200000020000021000001200010210001112200,50</title>
<path fill="none" stroke="black" d="M2930.9,-232.23C2951.73,-207.99 2975.33,-180.53 2996.26,-156.16"/>
<polygon fill="black" stroke="black" points="2999.1,-158.23 3002.96,-148.37 2993.79,-153.67 2999.1,-158.23"/>
</g>
<!-- 000200000020000021000001200010210001012201,50 -->
<g id="node25" class="node">
<title>000200000020000021000001200010210001012201,50</title>
<ellipse fill="none" stroke="black" cx="3234.19" cy="-87.74" rx="83.39" ry="83.39"/>
<text text-anchor="middle" x="3234.19" y="-84.04" font-family="Times New Roman,serif" font-size="14.00">5.214647633744855</text>
</g>
<!-- 000200000020000021000001200010210001012200,49&#45;&gt;000200000020000021000001200010210001012201,50 -->
<g id="edge24" class="edge">
<title>000200000020000021000001200010210001012200,49&#45;&gt;000200000020000021000001200010210001012201,50</title>
<path fill="none" stroke="black" d="M2956.69,-268.59C3011.64,-246.93 3084.15,-214.58 3142.19,-175.48 3151.35,-169.32 3160.45,-162.23 3169.18,-154.82"/>
<polygon fill="black" stroke="black" points="3171.49,-157.44 3176.74,-148.24 3166.9,-152.16 3171.49,-157.44"/>
</g>
<!-- 000200000120000021000001200010210001012002,50 -->
<g id="node26" class="node">
<title>000200000120000021000001200010210001012002,50</title>
<ellipse fill="none" stroke="black" cx="3423.19" cy="-87.74" rx="87.99" ry="87.99"/>
<text text-anchor="middle" x="3423.19" y="-84.04" font-family="Times New Roman,serif" font-size="14.00">2.7436085390946507</text>
</g>
<!-- 000200000020000021000001200010210001012002,49&#45;&gt;000200000120000021000001200010210001012002,50 -->
<g id="edge27" class="edge">
<title>000200000020000021000001200010210001012002,49&#45;&gt;000200000120000021000001200010210001012002,50</title>
<path fill="none" stroke="black" d="M3713.68,-269.32C3656.96,-247.62 3581.18,-214.93 3520.19,-175.48 3511.19,-169.66 3502.19,-163.01 3493.5,-156.05"/>
<polygon fill="black" stroke="black" points="3495.57,-153.22 3485.62,-149.58 3491.13,-158.63 3495.57,-153.22"/>
</g>
<!-- 000200000020000021000001200010210001012012,50 -->
<g id="node27" class="node">
<title>000200000020000021000001200010210001012012,50</title>
<ellipse fill="none" stroke="black" cx="3612.19" cy="-87.74" rx="83.39" ry="83.39"/>
<text text-anchor="middle" x="3612.19" y="-84.04" font-family="Times New Roman,serif" font-size="14.00">4.125411522633744</text>
</g>
<!-- 000200000020000021000001200010210001012002,49&#45;&gt;000200000020000021000001200010210001012012,50 -->
<g id="edge29" class="edge">
<title>000200000020000021000001200010210001012002,49&#45;&gt;000200000020000021000001200010210001012012,50</title>
<path fill="none" stroke="black" d="M3738.73,-232.81C3717.99,-209.19 3694.51,-182.46 3673.45,-158.49"/>
<polygon fill="black" stroke="black" points="3675.94,-156.01 3666.71,-150.81 3670.68,-160.63 3675.94,-156.01"/>
</g>
<!-- 000200000020000021000001200010210011012002,50 -->
<g id="node28" class="node">
<title>000200000020000021000001200010210011012002,50</title>
<ellipse fill="none" stroke="black" cx="3796.19" cy="-87.74" rx="83.39" ry="83.39"/>
<text text-anchor="middle" x="3796.19" y="-84.04" font-family="Times New Roman,serif" font-size="14.00">4.136522633744856</text>
</g>
<!-- 000200000020000021000001200010210001012002,49&#45;&gt;000200000020000021000001200010210011012002,50 -->
<g id="edge30" class="edge">
<title>000200000020000021000001200010210001012002,49&#45;&gt;000200000020000021000001200010210011012002,50</title>
<path fill="none" stroke="black" d="M3796.19,-211.21C3796.19,-201.36 3796.19,-191.3 3796.19,-181.39"/>
<polygon fill="black" stroke="black" points="3799.69,-181.12 3796.19,-171.12 3792.69,-181.12 3799.69,-181.12"/>
</g>
<!-- 000200000020000021000101200010210001012002,50 -->
<g id="node29" class="node">
<title>000200000020000021000101200010210001012002,50</title>
<ellipse fill="none" stroke="black" cx="3972.19" cy="-87.74" rx="74.99" ry="74.99"/>
<text text-anchor="middle" x="3972.19" y="-84.04" font-family="Times New Roman,serif" font-size="14.00">4.5590920781893</text>
</g>
<!-- 000200000020000021000001200010210001012002,49&#45;&gt;000200000020000021000101200010210001012002,50 -->
<g id="edge25" class="edge">
<title>000200000020000021000001200010210001012002,49&#45;&gt;000200000020000021000101200010210001012002,50</title>
<path fill="none" stroke="black" d="M3852.36,-231.37C3873.33,-206.41 3897.09,-178.13 3917.89,-153.38"/>
<polygon fill="black" stroke="black" points="3920.78,-155.38 3924.53,-145.47 3915.42,-150.88 3920.78,-155.38"/>
</g>
<!-- 000200000020000021000001200010210001112002,50 -->
<g id="node30" class="node">
<title>000200000020000021000001200010210001112002,50</title>
<ellipse fill="none" stroke="black" cx="4148.19" cy="-87.74" rx="83.39" ry="83.39"/>
<text text-anchor="middle" x="4148.19" y="-84.04" font-family="Times New Roman,serif" font-size="14.00">4.625411522633744</text>
</g>
<!-- 000200000020000021000001200010210001012002,49&#45;&gt;000200000020000021000001200010210001112002,50 -->
<g id="edge26" class="edge">
<title>000200000020000021000001200010210001012002,49&#45;&gt;000200000020000021000001200010210001112002,50</title>
<path fill="none" stroke="black" d="M3878.23,-267.33C3931.26,-245.51 4000.52,-213.45 4056.19,-175.48 4065.31,-169.27 4074.39,-162.15 4083.11,-154.72"/>
<polygon fill="black" stroke="black" points="4085.43,-157.34 4090.66,-148.12 4080.83,-152.06 4085.43,-157.34"/>
</g>
<!-- 000200000020000021000001200010210001012102,50 -->
<g id="node31" class="node">
<title>000200000020000021000001200010210001012102,50</title>
<ellipse fill="none" stroke="black" cx="4332.19" cy="-87.74" rx="83.39" ry="83.39"/>
<text text-anchor="middle" x="4332.19" y="-84.04" font-family="Times New Roman,serif" font-size="14.00">5.214647633744855</text>
</g>
<!-- 000200000020000021000001200010210001012002,49&#45;&gt;000200000020000021000001200010210001012102,50 -->
<g id="edge28" class="edge">
<title>000200000020000021000001200010210001012002,49&#45;&gt;000200000020000021000001200010210001012102,50</title>
<path fill="none" stroke="black" d="M3883.15,-286.93C3976.29,-272.01 4126.08,-239.74 4240.19,-175.48 4249.96,-169.99 4259.49,-163.23 4268.48,-155.94"/>
<polygon fill="black" stroke="black" points="4270.85,-158.53 4276.25,-149.41 4266.34,-153.17 4270.85,-158.53"/>
</g>
<!-- 001200000220000021000001200010210001012000,50 -->
<g id="node32" class="node">
<title>001200000220000021000001200010210001012000,50</title>
<ellipse fill="none" stroke="black" cx="4521.19" cy="-87.74" rx="87.99" ry="87.99"/>
<text text-anchor="middle" x="4521.19" y="-84.04" font-family="Times New Roman,serif" font-size="14.00">2.9133166666666677</text>
</g>
<!-- 000200000220000021000001200010210001012000,49&#45;&gt;001200000220000021000001200010210001012000,50 -->
<g id="edge33" class="edge">
<title>000200000220000021000001200010210001012000,49&#45;&gt;001200000220000021000001200010210001012000,50</title>
<path fill="none" stroke="black" d="M4820.1,-270.84C4761.01,-249.43 4681.1,-216.46 4617.19,-175.48 4608.29,-169.78 4599.41,-163.23 4590.85,-156.36"/>
<polygon fill="black" stroke="black" points="4593.04,-153.62 4583.09,-149.96 4588.59,-159.02 4593.04,-153.62"/>
</g>
<!-- 000200000220000021000001200010210001012010,50 -->
<g id="node33" class="node">
<title>000200000220000021000001200010210001012010,50</title>
<ellipse fill="none" stroke="black" cx="4714.19" cy="-87.74" rx="87.99" ry="87.99"/>
<text text-anchor="middle" x="4714.19" y="-84.04" font-family="Times New Roman,serif" font-size="14.00">4.7336613168724275</text>
</g>
<!-- 000200000220000021000001200010210001012000,49&#45;&gt;000200000220000021000001200010210001012010,50 -->
<g id="edge35" class="edge">
<title>000200000220000021000001200010210001012000,49&#45;&gt;000200000220000021000001200010210001012010,50</title>
<path fill="none" stroke="black" d="M4844.69,-233.38C4824.04,-210.5 4800.71,-184.64 4779.54,-161.17"/>
<polygon fill="black" stroke="black" points="4782.05,-158.72 4772.75,-153.64 4776.85,-163.41 4782.05,-158.72"/>
</g>
<!-- 000200000220000021000101200010210001012000,50 -->
<g id="node34" class="node">
<title>000200000220000021000101200010210001012000,50</title>
<ellipse fill="none" stroke="black" cx="4903.19" cy="-87.74" rx="83.39" ry="83.39"/>
<text text-anchor="middle" x="4903.19" y="-84.04" font-family="Times New Roman,serif" font-size="14.00">5.278452983539094</text>
</g>
<!-- 000200000220000021000001200010210001012000,49&#45;&gt;000200000220000021000101200010210001012000,50 -->
<g id="edge31" class="edge">
<title>000200000220000021000001200010210001012000,49&#45;&gt;000200000220000021000101200010210001012000,50</title>
<path fill="none" stroke="black" d="M4903.19,-211.21C4903.19,-201.36 4903.19,-191.3 4903.19,-181.39"/>
<polygon fill="black" stroke="black" points="4906.69,-181.12 4903.19,-171.12 4899.69,-181.12 4906.69,-181.12"/>
</g>
<!-- 000200000220000021000001200010210001112000,50 -->
<g id="node35" class="node">
<title>000200000220000021000001200010210001112000,50</title>
<ellipse fill="none" stroke="black" cx="5087.19" cy="-87.74" rx="83.39" ry="83.39"/>
<text text-anchor="middle" x="5087.19" y="-84.04" font-family="Times New Roman,serif" font-size="14.00">5.289216872427983</text>
</g>
<!-- 000200000220000021000001200010210001012000,49&#45;&gt;000200000220000021000001200010210001112000,50 -->
<g id="edge32" class="edge">
<title>000200000220000021000001200010210001012000,49&#45;&gt;000200000220000021000001200010210001112000,50</title>
<path fill="none" stroke="black" d="M4960.65,-232.81C4981.4,-209.19 5004.88,-182.46 5025.93,-158.49"/>
<polygon fill="black" stroke="black" points="5028.71,-160.63 5032.68,-150.81 5023.45,-156.01 5028.71,-160.63"/>
</g>
<!-- 000200000220000021000001200010210001012001,50 -->
<g id="node36" class="node">
<title>000200000220000021000001200010210001012001,50</title>
<ellipse fill="none" stroke="black" cx="5271.19" cy="-87.74" rx="83.39" ry="83.39"/>
<text text-anchor="middle" x="5271.19" y="-84.04" font-family="Times New Roman,serif" font-size="14.00">5.822897427983539</text>
</g>
<!-- 000200000220000021000001200010210001012000,49&#45;&gt;000200000220000021000001200010210001012001,50 -->
<g id="edge36" class="edge">
<title>000200000220000021000001200010210001012000,49&#45;&gt;000200000220000021000001200010210001012001,50</title>
<path fill="none" stroke="black" d="M4986.04,-269.82C5042.9,-248.35 5118.73,-215.73 5179.19,-175.48 5188.38,-169.37 5197.51,-162.31 5206.24,-154.92"/>
<polygon fill="black" stroke="black" points="5208.55,-157.54 5213.81,-148.35 5203.97,-152.26 5208.55,-157.54"/>
</g>
<!-- 000200000220000021000001200010210001012100,50 -->
<g id="node37" class="node">
<title>000200000220000021000001200010210001012100,50</title>
<ellipse fill="none" stroke="black" cx="5460.19" cy="-87.74" rx="87.99" ry="87.99"/>
<text text-anchor="middle" x="5460.19" y="-84.04" font-family="Times New Roman,serif" font-size="14.00">5.8228974279835395</text>
</g>
<!-- 000200000220000021000001200010210001012000,49&#45;&gt;000200000220000021000001200010210001012100,50 -->
<g id="edge34" class="edge">
<title>000200000220000021000001200010210001012000,49&#45;&gt;000200000220000021000001200010210001012100,50</title>
<path fill="none" stroke="black" d="M4990.32,-287.36C5086.31,-272.65 5243.01,-240.39 5363.19,-175.48 5372.7,-170.35 5382.05,-164.1 5390.96,-157.34"/>
<polygon fill="black" stroke="black" points="5393.32,-159.93 5399.01,-151 5388.99,-154.43 5393.32,-159.93"/>
</g>
<!-- 000200000120000021000201200010210001012000,50 -->
<g id="node38" class="node">
<title>000200000120000021000201200010210001012000,50</title>
<ellipse fill="none" stroke="black" cx="5653.19" cy="-87.74" rx="87.99" ry="87.99"/>
<text text-anchor="middle" x="5653.19" y="-84.04" font-family="Times New Roman,serif" font-size="14.00">3.4387474279835404</text>
</g>
<!-- 000200000020000021000201200010210001012000,49&#45;&gt;000200000120000021000201200010210001012000,50 -->
<g id="edge39" class="edge">
<title>000200000020000021000201200010210001012000,49&#45;&gt;000200000120000021000201200010210001012000,50</title>
<path fill="none" stroke="black" d="M5952.1,-270.84C5893.01,-249.43 5813.1,-216.46 5749.19,-175.48 5740.29,-169.78 5731.41,-163.23 5722.85,-156.36"/>
<polygon fill="black" stroke="black" points="5725.04,-153.62 5715.09,-149.96 5720.59,-159.02 5725.04,-153.62"/>
</g>
<!-- 000200000020000021000201200010210001012010,50 -->
<g id="node39" class="node">
<title>000200000020000021000201200010210001012010,50</title>
<ellipse fill="none" stroke="black" cx="5846.19" cy="-87.74" rx="87.99" ry="87.99"/>
<text text-anchor="middle" x="5846.19" y="-84.04" font-family="Times New Roman,serif" font-size="14.00">4.7217926337448555</text>
</g>
<!-- 000200000020000021000201200010210001012000,49&#45;&gt;000200000020000021000201200010210001012010,50 -->
<g id="edge41" class="edge">
<title>000200000020000021000201200010210001012000,49&#45;&gt;000200000020000021000201200010210001012010,50</title>
<path fill="none" stroke="black" d="M5976.69,-233.38C5956.04,-210.5 5932.71,-184.64 5911.54,-161.17"/>
<polygon fill="black" stroke="black" points="5914.05,-158.72 5904.75,-153.64 5908.85,-163.41 5914.05,-158.72"/>
</g>
<!-- 000200000020000021000201200010210001112000,50 -->
<g id="node40" class="node">
<title>000200000020000021000201200010210001112000,50</title>
<ellipse fill="none" stroke="black" cx="6035.19" cy="-87.74" rx="83.39" ry="83.39"/>
<text text-anchor="middle" x="6035.19" y="-84.04" font-family="Times New Roman,serif" font-size="14.00">5.277348189300411</text>
</g>
<!-- 000200000020000021000201200010210001012000,49&#45;&gt;000200000020000021000201200010210001112000,50 -->
<g id="edge38" class="edge">
<title>000200000020000021000201200010210001012000,49&#45;&gt;000200000020000021000201200010210001112000,50</title>
<path fill="none" stroke="black" d="M6035.19,-211.21C6035.19,-201.36 6035.19,-191.3 6035.19,-181.39"/>
<polygon fill="black" stroke="black" points="6038.69,-181.12 6035.19,-171.12 6031.69,-181.12 6038.69,-181.12"/>
</g>
<!-- 000200000020000021000201200010210001012001,50 -->
<g id="node41" class="node">
<title>000200000020000021000201200010210001012001,50</title>
<ellipse fill="none" stroke="black" cx="6211.19" cy="-87.74" rx="74.99" ry="74.99"/>
<text text-anchor="middle" x="6211.19" y="-84.04" font-family="Times New Roman,serif" font-size="14.00">5.7590920781893</text>
</g>
<!-- 000200000020000021000201200010210001012000,49&#45;&gt;000200000020000021000201200010210001012001,50 -->
<g id="edge42" class="edge">
<title>000200000020000021000201200010210001012000,49&#45;&gt;000200000020000021000201200010210001012001,50</title>
<path fill="none" stroke="black" d="M6091.36,-231.37C6112.33,-206.41 6136.09,-178.13 6156.89,-153.38"/>
<polygon fill="black" stroke="black" points="6159.78,-155.38 6163.53,-145.47 6154.42,-150.88 6159.78,-155.38"/>
</g>
<!-- 000200000020000021000201200010210001012100,50 -->
<g id="node42" class="node">
<title>000200000020000021000201200010210001012100,50</title>
<ellipse fill="none" stroke="black" cx="6387.19" cy="-87.74" rx="83.39" ry="83.39"/>
<text text-anchor="middle" x="6387.19" y="-84.04" font-family="Times New Roman,serif" font-size="14.00">5.811028744855967</text>
</g>
<!-- 000200000020000021000201200010210001012000,49&#45;&gt;000200000020000021000201200010210001012100,50 -->
<g id="edge40" class="edge">
<title>000200000020000021000201200010210001012000,49&#45;&gt;000200000020000021000201200010210001012100,50</title>
<path fill="none" stroke="black" d="M6117.23,-267.33C6170.26,-245.51 6239.52,-213.45 6295.19,-175.48 6304.31,-169.27 6313.39,-162.15 6322.11,-154.72"/>
<polygon fill="black" stroke="black" points="6324.43,-157.34 6329.66,-148.12 6319.83,-152.06 6324.43,-157.34"/>
</g>
<!-- 000200000020001021000201200010210001012000,50 -->
<g id="node43" class="node">
<title>000200000020001021000201200010210001012000,50</title>
<ellipse fill="none" stroke="black" cx="6571.19" cy="-87.74" rx="83.39" ry="83.39"/>
<text text-anchor="middle" x="6571.19" y="-84.04" font-family="Times New Roman,serif" font-size="14.00">5.911028744855966</text>
</g>
<!-- 000200000020000021000201200010210001012000,49&#45;&gt;000200000020001021000201200010210001012000,50 -->
<g id="edge37" class="edge">
<title>000200000020000021000201200010210001012000,49&#45;&gt;000200000020001021000201200010210001012000,50</title>
<path fill="none" stroke="black" d="M6122.15,-286.93C6215.29,-272.01 6365.08,-239.74 6479.19,-175.48 6488.96,-169.99 6498.49,-163.23 6507.48,-155.94"/>
<polygon fill="black" stroke="black" points="6509.85,-158.53 6515.25,-149.41 6505.34,-153.17 6509.85,-158.53"/>
</g>
</g>
</svg>
