<?xml version="1.0" encoding="UTF-8" standalone="no"?>
<!DOCTYPE svg PUBLIC "-//W3C//DTD SVG 1.1//EN"
 "http://www.w3.org/Graphics/SVG/1.1/DTD/svg11.dtd">
<!-- Generated by graphviz version 3.0.0 (20220226.1711)
 -->
<!-- Title: tree Pages: 1 -->
<svg width="5377pt" height="625pt"
 viewBox="0.00 0.00 5376.88 624.65" xmlns="http://www.w3.org/2000/svg" xmlns:xlink="http://www.w3.org/1999/xlink">
<g id="graph0" class="graph" transform="scale(1 1) rotate(0) translate(4 620.65)">
<title>tree</title>
<polygon fill="white" stroke="transparent" points="-4,4 -4,-620.65 5372.88,-620.65 5372.88,4 -4,4"/>
<!-- 000000000000000001000000200000010000002000,50 -->
<g id="node1" class="node">
<title>000000000000000001000000200000010000002000,50</title>
<ellipse fill="none" stroke="black" cx="3548.99" cy="-530.21" rx="86.38" ry="86.38"/>
<text text-anchor="middle" x="3548.99" y="-526.51" font-family="Times New Roman,serif" font-size="14.00">&#45;4.048505679012345</text>
</g>
<!-- 000000000000000001000000200000010000202000,49 -->
<g id="node2" class="node">
<title>000000000000000001000000200000010000202000,49</title>
<ellipse fill="none" stroke="black" cx="476.99" cy="-316.78" rx="90.98" ry="90.98"/>
<text text-anchor="middle" x="476.99" y="-313.08" font-family="Times New Roman,serif" font-size="14.00">&#45;12.721486646090536</text>
</g>
<!-- 000000000000000001000000200000010000002000,50&#45;&gt;000000000000000001000000200000010000202000,49 -->
<g id="edge2" class="edge">
<title>000000000000000001000000200000010000002000,50&#45;&gt;000000000000000001000000200000010000202000,49</title>
<path fill="none" stroke="black" d="M3462.58,-525.37C3174.64,-512.34 2221.52,-467.28 1434.99,-407.77 1121.82,-384.07 751.95,-346.64 577.56,-328.43"/>
<polygon fill="black" stroke="black" points="577.69,-324.93 567.38,-327.37 576.96,-331.89 577.69,-324.93"/>
</g>
<!-- 000000000000000001000000200000010002002000,49 -->
<g id="node3" class="node">
<title>000000000000000001000000200000010002002000,49</title>
<ellipse fill="none" stroke="black" cx="1534.99" cy="-316.78" rx="90.98" ry="90.98"/>
<text text-anchor="middle" x="1534.99" y="-313.08" font-family="Times New Roman,serif" font-size="14.00">&#45;11.494481646090536</text>
</g>
<!-- 000000000000000001000000200000010000002000,50&#45;&gt;000000000000000001000000200000010002002000,49 -->
<g id="edge1" class="edge">
<title>000000000000000001000000200000010000002000,50&#45;&gt;000000000000000001000000200000010002002000,49</title>
<path fill="none" stroke="black" d="M3463.1,-520.19C3138.1,-486.07 1984.53,-364.97 1635.66,-328.34"/>
<polygon fill="black" stroke="black" points="1635.89,-324.85 1625.58,-327.29 1635.16,-331.81 1635.89,-324.85"/>
</g>
<!-- 000000000000000001000000200000010000022000,49 -->
<g id="node4" class="node">
<title>000000000000000001000000200000010000022000,49</title>
<ellipse fill="none" stroke="black" cx="2879.99" cy="-316.78" rx="90.98" ry="90.98"/>
<text text-anchor="middle" x="2879.99" y="-313.08" font-family="Times New Roman,serif" font-size="14.00">&#45;11.482128312757203</text>
</g>
<!-- 000000000000000001000000200000010000002000,50&#45;&gt;000000000000000001000000200000010000022000,49 -->
<g id="edge3" class="edge">
<title>000000000000000001000000200000010000002000,50&#45;&gt;000000000000000001000000200000010000022000,49</title>
<path fill="none" stroke="black" d="M3466.62,-503.18C3342.51,-463.95 3108.09,-389.87 2976.27,-348.2"/>
<polygon fill="black" stroke="black" points="2977.16,-344.81 2966.57,-345.14 2975.05,-351.49 2977.16,-344.81"/>
</g>
<!-- 000000000000000001000000200000010000002020,49 -->
<g id="node5" class="node">
<title>000000000000000001000000200000010000002020,49</title>
<ellipse fill="none" stroke="black" cx="3548.99" cy="-316.78" rx="86.38" ry="86.38"/>
<text text-anchor="middle" x="3548.99" y="-313.08" font-family="Times New Roman,serif" font-size="14.00">&#45;6.280451399176955</text>
</g>
<!-- 000000000000000001000000200000010000002000,50&#45;&gt;000000000000000001000000200000010000002020,49 -->
<g id="edge6" class="edge">
<title>000000000000000001000000200000010000002000,50&#45;&gt;000000000000000001000000200000010000002020,49</title>
<path fill="none" stroke="black" d="M3548.99,-443.52C3548.99,-433.56 3548.99,-423.35 3548.99,-413.27"/>
<polygon fill="black" stroke="black" points="3552.49,-413.25 3548.99,-403.25 3545.49,-413.25 3552.49,-413.25"/>
</g>
<!-- 000000000000000001000000200000010000002002,49 -->
<g id="node6" class="node">
<title>000000000000000001000000200000010000002002,49</title>
<ellipse fill="none" stroke="black" cx="3739.99" cy="-316.78" rx="86.38" ry="86.38"/>
<text text-anchor="middle" x="3739.99" y="-313.08" font-family="Times New Roman,serif" font-size="14.00">&#45;5.053446399176955</text>
</g>
<!-- 000000000000000001000000200000010000002000,50&#45;&gt;000000000000000001000000200000010000002002,49 -->
<g id="edge7" class="edge">
<title>000000000000000001000000200000010000002000,50&#45;&gt;000000000000000001000000200000010000002002,49</title>
<path fill="none" stroke="black" d="M3606.56,-465.49C3628.36,-441.35 3653.31,-413.73 3675.69,-388.96"/>
<polygon fill="black" stroke="black" points="3678.44,-391.14 3682.54,-381.37 3673.24,-386.44 3678.44,-391.14"/>
</g>
<!-- 000000000000000001000000200000010000002200,49 -->
<g id="node7" class="node">
<title>000000000000000001000000200000010000002200,49</title>
<ellipse fill="none" stroke="black" cx="3930.99" cy="-316.78" rx="86.38" ry="86.38"/>
<text text-anchor="middle" x="3930.99" y="-313.08" font-family="Times New Roman,serif" font-size="14.00">&#45;5.041093065843621</text>
</g>
<!-- 000000000000000001000000200000010000002000,50&#45;&gt;000000000000000001000000200000010000002200,49 -->
<g id="edge5" class="edge">
<title>000000000000000001000000200000010000002000,50&#45;&gt;000000000000000001000000200000010000002200,49</title>
<path fill="none" stroke="black" d="M3631.07,-503.06C3690.4,-482.14 3771.03,-449.43 3834.99,-407.77 3844.79,-401.39 3854.5,-393.96 3863.78,-386.16"/>
<polygon fill="black" stroke="black" points="3866.17,-388.72 3871.46,-379.54 3861.6,-383.42 3866.17,-388.72"/>
</g>
<!-- 000000000020000001000000200000010000002000,49 -->
<g id="node8" class="node">
<title>000000000020000001000000200000010000002000,49</title>
<ellipse fill="none" stroke="black" cx="4582.99" cy="-316.78" rx="86.38" ry="86.38"/>
<text text-anchor="middle" x="4582.99" y="-313.08" font-family="Times New Roman,serif" font-size="14.00">&#45;4.048505679012345</text>
</g>
<!-- 000000000000000001000000200000010000002000,50&#45;&gt;000000000020000001000000200000010000002000,49 -->
<g id="edge4" class="edge">
<title>000000000000000001000000200000010000002000,50&#45;&gt;000000000020000001000000200000010000002000,49</title>
<path fill="none" stroke="black" d="M3633.61,-511.91C3824.64,-472.84 4288.23,-378.05 4488.39,-337.12"/>
<polygon fill="black" stroke="black" points="4489.2,-340.53 4498.29,-335.09 4487.8,-333.67 4489.2,-340.53"/>
</g>
<!-- 000000000010000001000000200000010000202000,50 -->
<g id="node9" class="node">
<title>000000000010000001000000200000010000202000,50</title>
<ellipse fill="none" stroke="black" cx="90.99" cy="-94.89" rx="90.98" ry="90.98"/>
<text text-anchor="middle" x="90.99" y="-91.19" font-family="Times New Roman,serif" font-size="14.00">&#45;12.721486646090536</text>
</g>
<!-- 000000000000000001000000200000010000202000,49&#45;&gt;000000000010000001000000200000010000202000,50 -->
<g id="edge11" class="edge">
<title>000000000000000001000000200000010000202000,49&#45;&gt;000000000010000001000000200000010000202000,50</title>
<path fill="none" stroke="black" d="M390.84,-286.6C331.95,-264.6 253.55,-231.17 190.99,-189.78 181.06,-183.21 171.19,-175.63 161.75,-167.68"/>
<polygon fill="black" stroke="black" points="163.77,-164.8 153.92,-160.92 159.2,-170.1 163.77,-164.8"/>
</g>
<!-- 000000000000000001000000200000010000212000,50 -->
<g id="node10" class="node">
<title>000000000000000001000000200000010000212000,50</title>
<ellipse fill="none" stroke="black" cx="285.99" cy="-94.89" rx="86.38" ry="86.38"/>
<text text-anchor="middle" x="285.99" y="-91.19" font-family="Times New Roman,serif" font-size="14.00">&#45;8.290667510288065</text>
</g>
<!-- 000000000000000001000000200000010000202000,49&#45;&gt;000000000000000001000000200000010000212000,50 -->
<g id="edge10" class="edge">
<title>000000000000000001000000200000010000202000,49&#45;&gt;000000000000000001000000200000010000212000,50</title>
<path fill="none" stroke="black" d="M417.61,-247.41C395.87,-222.39 371.21,-194 349.16,-168.61"/>
<polygon fill="black" stroke="black" points="351.6,-166.09 342.4,-160.83 346.32,-170.68 351.6,-166.09"/>
</g>
<!-- 000000000000000001000000200000010001202000,50 -->
<g id="node11" class="node">
<title>000000000000000001000000200000010001202000,50</title>
<ellipse fill="none" stroke="black" cx="476.99" cy="-94.89" rx="86.38" ry="86.38"/>
<text text-anchor="middle" x="476.99" y="-91.19" font-family="Times New Roman,serif" font-size="14.00">&#45;6.280451399176955</text>
</g>
<!-- 000000000000000001000000200000010000202000,49&#45;&gt;000000000000000001000000200000010001202000,50 -->
<g id="edge8" class="edge">
<title>000000000000000001000000200000010000202000,49&#45;&gt;000000000000000001000000200000010001202000,50</title>
<path fill="none" stroke="black" d="M476.99,-225.71C476.99,-214.54 476.99,-203.08 476.99,-191.83"/>
<polygon fill="black" stroke="black" points="480.49,-191.57 476.99,-181.57 473.49,-191.57 480.49,-191.57"/>
</g>
<!-- 000000000000000001000000200001010000202000,50 -->
<g id="node12" class="node">
<title>000000000000000001000000200001010000202000,50</title>
<ellipse fill="none" stroke="black" cx="667.99" cy="-94.89" rx="86.38" ry="86.38"/>
<text text-anchor="middle" x="667.99" y="-91.19" font-family="Times New Roman,serif" font-size="14.00">&#45;5.814465041152262</text>
</g>
<!-- 000000000000000001000000200000010000202000,49&#45;&gt;000000000000000001000000200001010000202000,50 -->
<g id="edge9" class="edge">
<title>000000000000000001000000200000010000202000,49&#45;&gt;000000000000000001000000200001010000202000,50</title>
<path fill="none" stroke="black" d="M536.38,-247.41C558.11,-222.39 582.77,-194 604.83,-168.61"/>
<polygon fill="black" stroke="black" points="607.66,-170.68 611.58,-160.83 602.38,-166.09 607.66,-170.68"/>
</g>
<!-- 000000000010000001000000200000010002002000,50 -->
<g id="node13" class="node">
<title>000000000010000001000000200000010002002000,50</title>
<ellipse fill="none" stroke="black" cx="862.99" cy="-94.89" rx="90.98" ry="90.98"/>
<text text-anchor="middle" x="862.99" y="-91.19" font-family="Times New Roman,serif" font-size="14.00">&#45;11.494481646090536</text>
</g>
<!-- 000000000000000001000000200000010002002000,49&#45;&gt;000000000010000001000000200000010002002000,50 -->
<g id="edge15" class="edge">
<title>000000000000000001000000200000010002002000,49&#45;&gt;000000000010000001000000200000010002002000,50</title>
<path fill="none" stroke="black" d="M1444.19,-310.64C1326.9,-300.79 1119.27,-272.21 962.99,-189.78 952.19,-184.09 941.7,-176.9 931.83,-169.06"/>
<polygon fill="black" stroke="black" points="934,-166.31 924.06,-162.64 929.54,-171.7 934,-166.31"/>
</g>
<!-- 000000000000000001000000200000010002002100,50 -->
<g id="node14" class="node">
<title>000000000000000001000000200000010002002100,50</title>
<ellipse fill="none" stroke="black" cx="1057.99" cy="-94.89" rx="86.38" ry="86.38"/>
<text text-anchor="middle" x="1057.99" y="-91.19" font-family="Times New Roman,serif" font-size="14.00">&#45;7.119218065843621</text>
</g>
<!-- 000000000000000001000000200000010002002000,49&#45;&gt;000000000000000001000000200000010002002100,50 -->
<g id="edge16" class="edge">
<title>000000000000000001000000200000010002002000,49&#45;&gt;000000000000000001000000200000010002002100,50</title>
<path fill="none" stroke="black" d="M1445.77,-298.37C1365.28,-279.94 1245.79,-245.66 1153.99,-189.78 1143.12,-183.17 1132.52,-175.1 1122.57,-166.51"/>
<polygon fill="black" stroke="black" points="1124.89,-163.89 1115.1,-159.85 1120.24,-169.11 1124.89,-163.89"/>
</g>
<!-- 000000000000000001000000200000010002002010,50 -->
<g id="node15" class="node">
<title>000000000000000001000000200000010002002010,50</title>
<ellipse fill="none" stroke="black" cx="1248.99" cy="-94.89" rx="86.38" ry="86.38"/>
<text text-anchor="middle" x="1248.99" y="-91.19" font-family="Times New Roman,serif" font-size="14.00">&#45;7.103020843621398</text>
</g>
<!-- 000000000000000001000000200000010002002000,49&#45;&gt;000000000000000001000000200000010002002010,50 -->
<g id="edge17" class="edge">
<title>000000000000000001000000200000010002002000,49&#45;&gt;000000000000000001000000200000010002002010,50</title>
<path fill="none" stroke="black" d="M1457.32,-268.97C1421.96,-246.49 1380.23,-218.28 1344.99,-189.78 1335.34,-181.98 1325.54,-173.35 1316.09,-164.59"/>
<polygon fill="black" stroke="black" points="1318.27,-161.84 1308.59,-157.55 1313.48,-166.95 1318.27,-161.84"/>
</g>
<!-- 000000000000000001000000200000010002102000,50 -->
<g id="node16" class="node">
<title>000000000000000001000000200000010002102000,50</title>
<ellipse fill="none" stroke="black" cx="1439.99" cy="-94.89" rx="86.38" ry="86.38"/>
<text text-anchor="middle" x="1439.99" y="-91.19" font-family="Times New Roman,serif" font-size="14.00">&#45;7.080451399176955</text>
</g>
<!-- 000000000000000001000000200000010002002000,49&#45;&gt;000000000000000001000000200000010002102000,50 -->
<g id="edge13" class="edge">
<title>000000000000000001000000200000010002002000,49&#45;&gt;000000000000000001000000200000010002102000,50</title>
<path fill="none" stroke="black" d="M1499.21,-232.96C1492.31,-216.98 1485.05,-200.19 1478.08,-184.05"/>
<polygon fill="black" stroke="black" points="1481.19,-182.43 1474.01,-174.63 1474.77,-185.2 1481.19,-182.43"/>
</g>
<!-- 000000000000000001000000200000010002012000,50 -->
<g id="node17" class="node">
<title>000000000000000001000000200000010002012000,50</title>
<ellipse fill="none" stroke="black" cx="1630.99" cy="-94.89" rx="86.38" ry="86.38"/>
<text text-anchor="middle" x="1630.99" y="-91.19" font-family="Times New Roman,serif" font-size="14.00">&#45;7.063662510288065</text>
</g>
<!-- 000000000000000001000000200000010002002000,49&#45;&gt;000000000000000001000000200000010002012000,50 -->
<g id="edge14" class="edge">
<title>000000000000000001000000200000010002002000,49&#45;&gt;000000000000000001000000200000010002012000,50</title>
<path fill="none" stroke="black" d="M1571.15,-232.96C1578.12,-216.98 1585.46,-200.19 1592.5,-184.05"/>
<polygon fill="black" stroke="black" points="1595.82,-185.2 1596.61,-174.63 1589.4,-182.4 1595.82,-185.2"/>
</g>
<!-- 000000000000000001000000200010010002002000,50 -->
<g id="node18" class="node">
<title>000000000000000001000000200010010002002000,50</title>
<ellipse fill="none" stroke="black" cx="1821.99" cy="-94.89" rx="86.38" ry="86.38"/>
<text text-anchor="middle" x="1821.99" y="-91.19" font-family="Times New Roman,serif" font-size="14.00">&#45;5.268856707818928</text>
</g>
<!-- 000000000000000001000000200000010002002000,49&#45;&gt;000000000000000001000000200010010002002000,50 -->
<g id="edge12" class="edge">
<title>000000000000000001000000200000010002002000,49&#45;&gt;000000000000000001000000200010010002002000,50</title>
<path fill="none" stroke="black" d="M1612.63,-269.32C1648.28,-246.8 1690.43,-218.46 1725.99,-189.78 1735.66,-181.99 1745.46,-173.37 1754.91,-164.61"/>
<polygon fill="black" stroke="black" points="1757.52,-166.97 1762.42,-157.57 1752.73,-161.86 1757.52,-166.97"/>
</g>
<!-- 000000000000000001000000200000010002002001,50 -->
<g id="node19" class="node">
<title>000000000000000001000000200000010002002001,50</title>
<ellipse fill="none" stroke="black" cx="2012.99" cy="-94.89" rx="86.38" ry="86.38"/>
<text text-anchor="middle" x="2012.99" y="-91.19" font-family="Times New Roman,serif" font-size="14.00">&#45;5.053446399176955</text>
</g>
<!-- 000000000000000001000000200000010002002000,49&#45;&gt;000000000000000001000000200000010002002001,50 -->
<g id="edge18" class="edge">
<title>000000000000000001000000200000010002002000,49&#45;&gt;000000000000000001000000200000010002002001,50</title>
<path fill="none" stroke="black" d="M1624.44,-298.41C1705.15,-280.02 1824.96,-245.76 1916.99,-189.78 1927.86,-183.17 1938.46,-175.11 1948.42,-166.52"/>
<polygon fill="black" stroke="black" points="1950.75,-169.12 1955.89,-159.86 1946.1,-163.9 1950.75,-169.12"/>
</g>
<!-- 000000000010000001000000200000010000022000,50 -->
<g id="node20" class="node">
<title>000000000010000001000000200000010000022000,50</title>
<ellipse fill="none" stroke="black" cx="2207.99" cy="-94.89" rx="90.98" ry="90.98"/>
<text text-anchor="middle" x="2207.99" y="-91.19" font-family="Times New Roman,serif" font-size="14.00">&#45;11.482128312757203</text>
</g>
<!-- 000000000000000001000000200000010000022000,49&#45;&gt;000000000010000001000000200000010000022000,50 -->
<g id="edge22" class="edge">
<title>000000000000000001000000200000010000022000,49&#45;&gt;000000000010000001000000200000010000022000,50</title>
<path fill="none" stroke="black" d="M2789.19,-310.64C2671.9,-300.79 2464.27,-272.21 2307.99,-189.78 2297.19,-184.09 2286.7,-176.9 2276.83,-169.06"/>
<polygon fill="black" stroke="black" points="2279,-166.31 2269.06,-162.64 2274.54,-171.7 2279,-166.31"/>
</g>
<!-- 000000000000000001000000200000110000022000,50 -->
<g id="node21" class="node">
<title>000000000000000001000000200000110000022000,50</title>
<ellipse fill="none" stroke="black" cx="2402.99" cy="-94.89" rx="86.38" ry="86.38"/>
<text text-anchor="middle" x="2402.99" y="-91.19" font-family="Times New Roman,serif" font-size="14.00">&#45;7.180236707818928</text>
</g>
<!-- 000000000000000001000000200000010000022000,49&#45;&gt;000000000000000001000000200000110000022000,50 -->
<g id="edge21" class="edge">
<title>000000000000000001000000200000010000022000,49&#45;&gt;000000000000000001000000200000110000022000,50</title>
<path fill="none" stroke="black" d="M2790.77,-298.37C2710.28,-279.94 2590.79,-245.66 2498.99,-189.78 2488.12,-183.17 2477.52,-175.1 2467.57,-166.51"/>
<polygon fill="black" stroke="black" points="2469.89,-163.89 2460.1,-159.85 2465.24,-169.11 2469.89,-163.89"/>
</g>
<!-- 000000000000000001000000200000010000022100,50 -->
<g id="node22" class="node">
<title>000000000000000001000000200000010000022100,50</title>
<ellipse fill="none" stroke="black" cx="2593.99" cy="-94.89" rx="86.38" ry="86.38"/>
<text text-anchor="middle" x="2593.99" y="-91.19" font-family="Times New Roman,serif" font-size="14.00">&#45;7.106864732510288</text>
</g>
<!-- 000000000000000001000000200000010000022000,49&#45;&gt;000000000000000001000000200000010000022100,50 -->
<g id="edge23" class="edge">
<title>000000000000000001000000200000010000022000,49&#45;&gt;000000000000000001000000200000010000022100,50</title>
<path fill="none" stroke="black" d="M2802.32,-268.97C2766.96,-246.49 2725.23,-218.28 2689.99,-189.78 2680.34,-181.98 2670.54,-173.35 2661.09,-164.59"/>
<polygon fill="black" stroke="black" points="2663.27,-161.84 2653.59,-157.55 2658.48,-166.95 2663.27,-161.84"/>
</g>
<!-- 000000000000000001000000200000010000122000,50 -->
<g id="node23" class="node">
<title>000000000000000001000000200000010000122000,50</title>
<ellipse fill="none" stroke="black" cx="2784.99" cy="-94.89" rx="86.38" ry="86.38"/>
<text text-anchor="middle" x="2784.99" y="-91.19" font-family="Times New Roman,serif" font-size="14.00">&#45;7.090667510288066</text>
</g>
<!-- 000000000000000001000000200000010000022000,49&#45;&gt;000000000000000001000000200000010000122000,50 -->
<g id="edge20" class="edge">
<title>000000000000000001000000200000010000022000,49&#45;&gt;000000000000000001000000200000010000122000,50</title>
<path fill="none" stroke="black" d="M2844.21,-232.96C2837.31,-216.98 2830.05,-200.19 2823.08,-184.05"/>
<polygon fill="black" stroke="black" points="2826.19,-182.43 2819.01,-174.63 2819.77,-185.2 2826.19,-182.43"/>
</g>
<!-- 000000000000000001000000200000010000022010,50 -->
<g id="node24" class="node">
<title>000000000000000001000000200000010000022010,50</title>
<ellipse fill="none" stroke="black" cx="2975.99" cy="-94.89" rx="86.38" ry="86.38"/>
<text text-anchor="middle" x="2975.99" y="-91.19" font-family="Times New Roman,serif" font-size="14.00">&#45;7.090667510288065</text>
</g>
<!-- 000000000000000001000000200000010000022000,49&#45;&gt;000000000000000001000000200000010000022010,50 -->
<g id="edge24" class="edge">
<title>000000000000000001000000200000010000022000,49&#45;&gt;000000000000000001000000200000010000022010,50</title>
<path fill="none" stroke="black" d="M2916.15,-232.96C2923.12,-216.98 2930.46,-200.19 2937.5,-184.05"/>
<polygon fill="black" stroke="black" points="2940.82,-185.2 2941.61,-174.63 2934.4,-182.4 2940.82,-185.2"/>
</g>
<!-- 000000000000000001000000200000010001022000,50 -->
<g id="node25" class="node">
<title>000000000000000001000000200000010001022000,50</title>
<ellipse fill="none" stroke="black" cx="3166.99" cy="-94.89" rx="86.38" ry="86.38"/>
<text text-anchor="middle" x="3166.99" y="-91.19" font-family="Times New Roman,serif" font-size="14.00">&#45;5.041093065843622</text>
</g>
<!-- 000000000000000001000000200000010000022000,49&#45;&gt;000000000000000001000000200000010001022000,50 -->
<g id="edge19" class="edge">
<title>000000000000000001000000200000010000022000,49&#45;&gt;000000000000000001000000200000010001022000,50</title>
<path fill="none" stroke="black" d="M2957.63,-269.32C2993.28,-246.8 3035.43,-218.46 3070.99,-189.78 3080.66,-181.99 3090.46,-173.37 3099.91,-164.61"/>
<polygon fill="black" stroke="black" points="3102.52,-166.97 3107.42,-157.57 3097.73,-161.86 3102.52,-166.97"/>
</g>
<!-- 000000000000000001000000200000010000022001,50 -->
<g id="node26" class="node">
<title>000000000000000001000000200000010000022001,50</title>
<ellipse fill="none" stroke="black" cx="3357.99" cy="-94.89" rx="86.38" ry="86.38"/>
<text text-anchor="middle" x="3357.99" y="-91.19" font-family="Times New Roman,serif" font-size="14.00">&#45;5.041093065843621</text>
</g>
<!-- 000000000000000001000000200000010000022000,49&#45;&gt;000000000000000001000000200000010000022001,50 -->
<g id="edge25" class="edge">
<title>000000000000000001000000200000010000022000,49&#45;&gt;000000000000000001000000200000010000022001,50</title>
<path fill="none" stroke="black" d="M2969.44,-298.41C3050.15,-280.02 3169.96,-245.76 3261.99,-189.78 3272.86,-183.17 3283.46,-175.11 3293.42,-166.52"/>
<polygon fill="black" stroke="black" points="3295.75,-169.12 3300.89,-159.86 3291.1,-163.9 3295.75,-169.12"/>
</g>
<!-- 000000000000000001000000200000010001002020,50 -->
<g id="node27" class="node">
<title>000000000000000001000000200000010001002020,50</title>
<ellipse fill="none" stroke="black" cx="3548.99" cy="-94.89" rx="86.38" ry="86.38"/>
<text text-anchor="middle" x="3548.99" y="-91.19" font-family="Times New Roman,serif" font-size="14.00">&#45;6.280451399176955</text>
</g>
<!-- 000000000000000001000000200000010000002020,49&#45;&gt;000000000000000001000000200000010001002020,50 -->
<g id="edge26" class="edge">
<title>000000000000000001000000200000010000002020,49&#45;&gt;000000000000000001000000200000010001002020,50</title>
<path fill="none" stroke="black" d="M3548.99,-230.13C3548.99,-217.57 3548.99,-204.57 3548.99,-191.82"/>
<polygon fill="black" stroke="black" points="3552.49,-191.66 3548.99,-181.66 3545.49,-191.66 3552.49,-191.66"/>
</g>
<!-- 000000000000000001000000200000010001002002,50 -->
<g id="node28" class="node">
<title>000000000000000001000000200000010001002002,50</title>
<ellipse fill="none" stroke="black" cx="3739.99" cy="-94.89" rx="86.38" ry="86.38"/>
<text text-anchor="middle" x="3739.99" y="-91.19" font-family="Times New Roman,serif" font-size="14.00">&#45;5.053446399176955</text>
</g>
<!-- 000000000000000001000000200000010000002002,49&#45;&gt;000000000000000001000000200000010001002002,50 -->
<g id="edge27" class="edge">
<title>000000000000000001000000200000010000002002,49&#45;&gt;000000000000000001000000200000010001002002,50</title>
<path fill="none" stroke="black" d="M3739.99,-230.13C3739.99,-217.57 3739.99,-204.57 3739.99,-191.82"/>
<polygon fill="black" stroke="black" points="3743.49,-191.66 3739.99,-181.66 3736.49,-191.66 3743.49,-191.66"/>
</g>
<!-- 000000000000000001000000200000010001002200,50 -->
<g id="node29" class="node">
<title>000000000000000001000000200000010001002200,50</title>
<ellipse fill="none" stroke="black" cx="3930.99" cy="-94.89" rx="86.38" ry="86.38"/>
<text text-anchor="middle" x="3930.99" y="-91.19" font-family="Times New Roman,serif" font-size="14.00">&#45;5.041093065843621</text>
</g>
<!-- 000000000000000001000000200000010000002200,49&#45;&gt;000000000000000001000000200000010001002200,50 -->
<g id="edge28" class="edge">
<title>000000000000000001000000200000010000002200,49&#45;&gt;000000000000000001000000200000010001002200,50</title>
<path fill="none" stroke="black" d="M3930.99,-230.13C3930.99,-217.57 3930.99,-204.57 3930.99,-191.82"/>
<polygon fill="black" stroke="black" points="3934.49,-191.66 3930.99,-181.66 3927.49,-191.66 3934.49,-191.66"/>
</g>
<!-- 000100000020000001000000200000010000002000,50 -->
<g id="node30" class="node">
<title>000100000020000001000000200000010000002000,50</title>
<ellipse fill="none" stroke="black" cx="4121.99" cy="-94.89" rx="86.38" ry="86.38"/>
<text text-anchor="middle" x="4121.99" y="-91.19" font-family="Times New Roman,serif" font-size="14.00">&#45;4.048505679012345</text>
</g>
<!-- 000000000020000001000000200000010000002000,49&#45;&gt;000100000020000001000000200000010000002000,50 -->
<g id="edge32" class="edge">
<title>000000000020000001000000200000010000002000,49&#45;&gt;000100000020000001000000200000010000002000,50</title>
<path fill="none" stroke="black" d="M4498.36,-298.07C4421,-279.32 4305.49,-244.72 4216.99,-189.78 4206.5,-183.27 4196.26,-175.4 4186.62,-167.03"/>
<polygon fill="black" stroke="black" points="4188.81,-164.29 4179.03,-160.22 4184.14,-169.5 4188.81,-164.29"/>
</g>
<!-- 000000000020000001000000200000010000102000,50 -->
<g id="node31" class="node">
<title>000000000020000001000000200000010000102000,50</title>
<ellipse fill="none" stroke="black" cx="4307.99" cy="-94.89" rx="81.79" ry="81.79"/>
<text text-anchor="middle" x="4307.99" y="-91.19" font-family="Times New Roman,serif" font-size="14.00">&#45;2.09636452674897</text>
</g>
<!-- 000000000020000001000000200000010000002000,49&#45;&gt;000000000020000001000000200000010000102000,50 -->
<g id="edge30" class="edge">
<title>000000000020000001000000200000010000002000,49&#45;&gt;000000000020000001000000200000010000102000,50</title>
<path fill="none" stroke="black" d="M4509.78,-270.51C4475.03,-247.82 4433.62,-218.99 4398.99,-189.78 4389.41,-181.7 4379.72,-172.73 4370.43,-163.64"/>
<polygon fill="black" stroke="black" points="4372.63,-160.89 4363.07,-156.34 4367.7,-165.86 4372.63,-160.89"/>
</g>
<!-- 000000000020000001000000200000010000002010,50 -->
<g id="node32" class="node">
<title>000000000020000001000000200000010000002010,50</title>
<ellipse fill="none" stroke="black" cx="4489.99" cy="-94.89" rx="81.79" ry="81.79"/>
<text text-anchor="middle" x="4489.99" y="-91.19" font-family="Times New Roman,serif" font-size="14.00">&#45;2.09636452674897</text>
</g>
<!-- 000000000020000001000000200000010000002000,49&#45;&gt;000000000020000001000000200000010000002010,50 -->
<g id="edge34" class="edge">
<title>000000000020000001000000200000010000002000,49&#45;&gt;000000000020000001000000200000010000002010,50</title>
<path fill="none" stroke="black" d="M4549.55,-236.7C4541.75,-218.27 4533.42,-198.58 4525.54,-179.94"/>
<polygon fill="black" stroke="black" points="4528.71,-178.44 4521.59,-170.59 4522.26,-181.17 4528.71,-178.44"/>
</g>
<!-- 000000000020000001000000200000010000012000,50 -->
<g id="node33" class="node">
<title>000000000020000001000000200000010000012000,50</title>
<ellipse fill="none" stroke="black" cx="4675.99" cy="-94.89" rx="86.38" ry="86.38"/>
<text text-anchor="middle" x="4675.99" y="-91.19" font-family="Times New Roman,serif" font-size="14.00">&#45;2.079575637860082</text>
</g>
<!-- 000000000020000001000000200000010000002000,49&#45;&gt;000000000020000001000000200000010000012000,50 -->
<g id="edge31" class="edge">
<title>000000000020000001000000200000010000002000,49&#45;&gt;000000000020000001000000200000010000012000,50</title>
<path fill="none" stroke="black" d="M4616.44,-236.7C4623.6,-219.77 4631.21,-201.77 4638.51,-184.51"/>
<polygon fill="black" stroke="black" points="4641.86,-185.57 4642.53,-175 4635.41,-182.85 4641.86,-185.57"/>
</g>
<!-- 000000000020000001000000200000010000002100,50 -->
<g id="node34" class="node">
<title>000000000020000001000000200000010000002100,50</title>
<ellipse fill="none" stroke="black" cx="4866.99" cy="-94.89" rx="86.38" ry="86.38"/>
<text text-anchor="middle" x="4866.99" y="-91.19" font-family="Times New Roman,serif" font-size="14.00">&#45;2.079575637860082</text>
</g>
<!-- 000000000020000001000000200000010000002000,49&#45;&gt;000000000020000001000000200000010000002100,50 -->
<g id="edge33" class="edge">
<title>000000000020000001000000200000010000002000,49&#45;&gt;000000000020000001000000200000010000002100,50</title>
<path fill="none" stroke="black" d="M4656.62,-270.9C4692.26,-248.07 4735.01,-219.02 4770.99,-189.78 4780.63,-181.95 4790.41,-173.32 4799.86,-164.55"/>
<polygon fill="black" stroke="black" points="4802.47,-166.9 4807.36,-157.5 4797.68,-161.8 4802.47,-166.9"/>
</g>
<!-- 000000000020000001000000200000010001002000,50 -->
<g id="node35" class="node">
<title>000000000020000001000000200000010001002000,50</title>
<ellipse fill="none" stroke="black" cx="5065.99" cy="-94.89" rx="94.78" ry="94.78"/>
<text text-anchor="middle" x="5065.99" y="-91.19" font-family="Times New Roman,serif" font-size="14.00">&#45;0.05708452674897091</text>
</g>
<!-- 000000000020000001000000200000010000002000,49&#45;&gt;000000000020000001000000200000010001002000,50 -->
<g id="edge29" class="edge">
<title>000000000020000001000000200000010000002000,49&#45;&gt;000000000020000001000000200000010001002000,50</title>
<path fill="none" stroke="black" d="M4667.76,-298.23C4747.47,-279.34 4868.24,-244.42 4961.99,-189.78 4972.09,-183.9 4982.06,-176.92 4991.6,-169.45"/>
<polygon fill="black" stroke="black" points="4993.91,-172.09 4999.5,-163.09 4989.51,-166.64 4993.91,-172.09"/>
</g>
<!-- 000000000020000001000000200000010000002001,50 -->
<g id="node36" class="node">
<title>000000000020000001000000200000010000002001,50</title>
<ellipse fill="none" stroke="black" cx="5273.99" cy="-94.89" rx="94.78" ry="94.78"/>
<text text-anchor="middle" x="5273.99" y="-91.19" font-family="Times New Roman,serif" font-size="14.00">&#45;0.05708452674897091</text>
</g>
<!-- 000000000020000001000000200000010000002000,49&#45;&gt;000000000020000001000000200000010000002001,50 -->
<g id="edge35" class="edge">
<title>000000000020000001000000200000010000002000,49&#45;&gt;000000000020000001000000200000010000002001,50</title>
<path fill="none" stroke="black" d="M4669.27,-311.19C4788.01,-301.87 5005.75,-273.81 5169.99,-189.78 5180.57,-184.37 5190.89,-177.61 5200.67,-170.21"/>
<polygon fill="black" stroke="black" points="5203.06,-172.79 5208.76,-163.86 5198.73,-167.28 5203.06,-172.79"/>
</g>
</g>
</svg>
